<svg width="406" height="432" viewBox="0 0 406 432" fill="none" xmlns="http://www.w3.org/2000/svg">
<mask id="mask0_627_294" style="mask-type:luminance" maskUnits="userSpaceOnUse" x="0" y="0" width="406" height="432">
<path d="M405 1V431H1V1H405Z" fill="white" stroke="white" stroke-width="2"/>
</mask>
<g mask="url(#mask0_627_294)">
<mask id="path-2-inside-1_627_294" fill="white">
<path d="M399.969 247.187H343.177C339.917 247.187 337.271 249.833 337.271 253.099V342.833C337.271 346.099 339.917 348.745 343.177 348.745H399.969C403.234 348.745 405.875 346.099 405.875 342.833V253.099C405.875 249.833 403.234 247.187 399.969 247.187ZM394.062 336.927H349.083V259.005H394.062V336.927ZM297.505 200.312H240.714C237.448 200.312 234.807 202.958 234.807 206.219V342.833C234.807 346.099 237.448 348.745 240.714 348.745H297.505C300.766 348.745 303.411 346.099 303.411 342.833V206.219C303.411 202.953 300.766 200.312 297.505 200.312ZM291.599 336.927H246.62V212.125H291.599V336.927ZM195.016 165.63H138.224C134.958 165.63 132.312 168.276 132.312 171.536V236.854H98.4323V132.865C98.4323 129.599 95.7865 126.958 92.526 126.958H35.7292C32.4688 126.958 29.8229 129.604 29.8229 132.865V236.854H11.0312C5.01562 236.854 0.125 241.75 0.125 247.76V421.094C0.125 427.104 5.01562 432 11.0312 432H160.339C166.354 432 171.245 427.104 171.245 421.094V348.745H195.016C198.276 348.745 200.922 346.099 200.922 342.833V171.536C200.922 168.276 198.276 165.63 195.016 165.63ZM41.6406 138.771H86.6146V236.859H41.6406V138.771ZM159.432 420.182H11.9375V248.672H159.432V420.182ZM189.109 336.927H171.245V247.76C171.245 241.75 166.354 236.854 160.339 236.854H144.125V177.448H189.109V336.927ZM44.1719 59.0989C45.651 56.1927 49.2031 55.0364 52.1146 56.5156C144.719 103.687 276.792 167.214 373.729 185.349L356.281 159.406C354.464 156.703 355.182 153.031 357.885 151.208C360.594 149.391 364.266 150.109 366.083 152.812L391.193 190.151C391.219 190.187 391.24 190.229 391.266 190.266C391.318 190.354 391.375 190.443 391.422 190.531C391.469 190.609 391.51 190.682 391.547 190.76C391.599 190.854 391.641 190.953 391.688 191.052C391.719 191.125 391.75 191.203 391.781 191.276C391.823 191.385 391.859 191.49 391.896 191.599C391.922 191.672 391.943 191.745 391.964 191.818C391.995 191.927 392.026 192.042 392.052 192.156C392.068 192.229 392.083 192.302 392.099 192.375C392.115 192.49 392.135 192.604 392.151 192.719C392.161 192.797 392.167 192.88 392.172 192.958C392.182 193.068 392.188 193.172 392.193 193.281C392.193 193.375 392.193 193.464 392.193 193.557C392.193 193.656 392.188 193.75 392.177 193.849C392.172 193.953 392.161 194.057 392.151 194.161C392.141 194.214 392.141 194.26 392.135 194.307C392.13 194.354 392.115 194.401 392.109 194.448C392.099 194.495 392.099 194.536 392.089 194.583C392.078 194.625 392.068 194.667 392.057 194.708C392.036 194.812 392.01 194.917 391.979 195.021C391.958 195.094 391.938 195.167 391.917 195.24C391.88 195.354 391.839 195.469 391.797 195.578C391.771 195.641 391.75 195.698 391.724 195.755C391.672 195.88 391.615 196 391.557 196.12C391.531 196.161 391.51 196.208 391.484 196.255C391.417 196.385 391.339 196.516 391.26 196.641C391.24 196.672 391.219 196.703 391.198 196.734C391.099 196.885 390.99 197.031 390.875 197.172C390.875 197.177 390.875 197.177 390.87 197.182C390.75 197.328 390.625 197.464 390.495 197.599C390.464 197.63 390.427 197.661 390.391 197.698C390.292 197.786 390.198 197.88 390.094 197.969C390.036 198.016 389.979 198.057 389.922 198.099C389.833 198.167 389.745 198.24 389.656 198.302C389.63 198.318 389.609 198.333 389.589 198.349L352.26 223.464C351.25 224.146 350.099 224.469 348.969 224.469C347.068 224.469 345.203 223.552 344.062 221.859C342.24 219.151 342.958 215.479 345.667 213.661L370.719 196.807C272.292 178.146 139.729 114.406 46.75 67.0469C43.8437 65.5677 42.6875 62.0104 44.1667 59.1041L44.1719 59.0989ZM296.604 85.7656C296.401 88.3854 297.036 90.4739 298.49 91.9739C300.052 93.5885 302.563 94.4375 305.318 94.3177C310.677 94.0573 314.578 90.2708 314.578 85.3177C314.578 78.9531 312.094 78.0573 304.234 76.1875C296.969 74.4583 284.807 71.5677 284.807 55.5625C284.807 46.1614 291.078 38.2031 299.656 35.6458V31.4062C299.656 28.1458 302.302 25.5 305.562 25.5C308.828 25.5 311.469 28.1458 311.469 31.4062V35.6302C320.083 38.1719 326.391 46.1458 326.391 55.5625C326.391 58.8281 323.75 61.4687 320.484 61.4687C317.224 61.4687 314.578 58.8229 314.578 55.5625C314.578 50.6198 310.547 46.5937 305.589 46.5937C300.63 46.5937 296.62 50.6198 296.62 55.5625C296.62 61.9271 299.104 62.8229 306.964 64.6927C314.229 66.4219 326.391 69.3125 326.391 85.3177C326.391 94.7187 320.271 102.49 311.469 105.156V109.495C311.469 112.76 308.828 115.406 305.562 115.406C302.302 115.406 299.656 112.76 299.656 109.495V105.552C295.922 104.672 292.568 102.839 290.01 100.198C286.208 96.276 284.37 90.8333 284.823 84.8646C285.073 81.6146 287.927 79.1771 291.161 79.4271C294.417 79.6771 296.849 82.5156 296.604 85.7708V85.7656ZM305.562 140.922C344.406 140.922 376.01 109.318 376.01 70.4635C376.01 31.6094 344.406 0.00518799 305.562 0.00518799C266.719 0.00518799 235.115 31.6094 235.115 70.4635C235.115 109.318 266.719 140.922 305.562 140.922ZM305.562 11.8177C337.896 11.8177 364.198 38.125 364.198 70.4635C364.198 102.802 337.896 129.109 305.562 129.109C273.234 129.109 246.927 102.802 246.927 70.4635C246.927 38.125 273.234 11.8177 305.562 11.8177ZM144.51 259.339H26.8594C23.026 259.339 19.901 262.464 19.901 266.297V297.75C19.901 301.589 23.026 304.708 26.8594 304.708H144.51C148.349 304.708 151.469 301.589 151.469 297.75V266.297C151.469 262.464 148.349 259.339 144.51 259.339ZM139.656 292.896H31.7135V271.156H139.656V292.896ZM94.1979 313.271H69.7344C66.0312 313.271 63.0156 316.286 63.0156 319.995V346.016C63.0156 349.734 66.0312 352.76 69.7344 352.76H94.1979C97.9063 352.76 100.917 349.734 100.917 346.016V319.995C100.917 316.286 97.9063 313.271 94.1979 313.271ZM89.1042 340.943H74.8281V325.089H89.1042V340.943ZM144.51 313.271H113.089C109.255 313.271 106.13 316.396 106.13 320.234V394.234C106.13 398.068 109.255 401.193 113.089 401.193H144.51C148.349 401.193 151.469 398.068 151.469 394.234V320.234C151.469 316.396 148.349 313.271 144.51 313.271ZM139.656 389.375H117.943V325.089H139.656V389.375ZM51.0833 361.729H26.6198C22.9167 361.729 19.901 364.745 19.901 368.448V394.474C19.901 398.177 22.9167 401.193 26.6198 401.193H51.0833C54.7917 401.193 57.8021 398.177 57.8021 394.474V368.448C57.8021 364.745 54.7917 361.729 51.0833 361.729ZM45.9896 389.375H31.7135V373.542H45.9896V389.375ZM94.1979 361.729H69.7344C66.0312 361.729 63.0156 364.745 63.0156 368.448V394.474C63.0156 398.177 66.0312 401.193 69.7344 401.193H94.1979C97.9063 401.193 100.917 398.177 100.917 394.474V368.448C100.917 364.745 97.9063 361.729 94.1979 361.729ZM89.1042 389.375H74.8281V373.542H89.1042V389.375ZM51.0833 313.271H26.6198C22.9167 313.271 19.901 316.286 19.901 319.995V346.016C19.901 349.734 22.9167 352.76 26.6198 352.76H51.0833C54.7917 352.76 57.8021 349.734 57.8021 346.016V319.995C57.8021 316.286 54.7917 313.271 51.0833 313.271ZM45.9896 340.943H31.7135V325.089H45.9896V340.943Z"/>
</mask>
<path d="M399.969 247.187H343.177C339.917 247.187 337.271 249.833 337.271 253.099V342.833C337.271 346.099 339.917 348.745 343.177 348.745H399.969C403.234 348.745 405.875 346.099 405.875 342.833V253.099C405.875 249.833 403.234 247.187 399.969 247.187ZM394.062 336.927H349.083V259.005H394.062V336.927ZM297.505 200.312H240.714C237.448 200.312 234.807 202.958 234.807 206.219V342.833C234.807 346.099 237.448 348.745 240.714 348.745H297.505C300.766 348.745 303.411 346.099 303.411 342.833V206.219C303.411 202.953 300.766 200.312 297.505 200.312ZM291.599 336.927H246.62V212.125H291.599V336.927ZM195.016 165.63H138.224C134.958 165.63 132.312 168.276 132.312 171.536V236.854H98.4323V132.865C98.4323 129.599 95.7865 126.958 92.526 126.958H35.7292C32.4688 126.958 29.8229 129.604 29.8229 132.865V236.854H11.0312C5.01562 236.854 0.125 241.75 0.125 247.76V421.094C0.125 427.104 5.01562 432 11.0312 432H160.339C166.354 432 171.245 427.104 171.245 421.094V348.745H195.016C198.276 348.745 200.922 346.099 200.922 342.833V171.536C200.922 168.276 198.276 165.63 195.016 165.63ZM41.6406 138.771H86.6146V236.859H41.6406V138.771ZM159.432 420.182H11.9375V248.672H159.432V420.182ZM189.109 336.927H171.245V247.76C171.245 241.75 166.354 236.854 160.339 236.854H144.125V177.448H189.109V336.927ZM44.1719 59.0989C45.651 56.1927 49.2031 55.0364 52.1146 56.5156C144.719 103.687 276.792 167.214 373.729 185.349L356.281 159.406C354.464 156.703 355.182 153.031 357.885 151.208C360.594 149.391 364.266 150.109 366.083 152.812L391.193 190.151C391.219 190.187 391.24 190.229 391.266 190.266C391.318 190.354 391.375 190.443 391.422 190.531C391.469 190.609 391.51 190.682 391.547 190.76C391.599 190.854 391.641 190.953 391.688 191.052C391.719 191.125 391.75 191.203 391.781 191.276C391.823 191.385 391.859 191.49 391.896 191.599C391.922 191.672 391.943 191.745 391.964 191.818C391.995 191.927 392.026 192.042 392.052 192.156C392.068 192.229 392.083 192.302 392.099 192.375C392.115 192.49 392.135 192.604 392.151 192.719C392.161 192.797 392.167 192.88 392.172 192.958C392.182 193.068 392.188 193.172 392.193 193.281C392.193 193.375 392.193 193.464 392.193 193.557C392.193 193.656 392.188 193.75 392.177 193.849C392.172 193.953 392.161 194.057 392.151 194.161C392.141 194.214 392.141 194.26 392.135 194.307C392.13 194.354 392.115 194.401 392.109 194.448C392.099 194.495 392.099 194.536 392.089 194.583C392.078 194.625 392.068 194.667 392.057 194.708C392.036 194.812 392.01 194.917 391.979 195.021C391.958 195.094 391.938 195.167 391.917 195.24C391.88 195.354 391.839 195.469 391.797 195.578C391.771 195.641 391.75 195.698 391.724 195.755C391.672 195.88 391.615 196 391.557 196.12C391.531 196.161 391.51 196.208 391.484 196.255C391.417 196.385 391.339 196.516 391.26 196.641C391.24 196.672 391.219 196.703 391.198 196.734C391.099 196.885 390.99 197.031 390.875 197.172C390.875 197.177 390.875 197.177 390.87 197.182C390.75 197.328 390.625 197.464 390.495 197.599C390.464 197.63 390.427 197.661 390.391 197.698C390.292 197.786 390.198 197.88 390.094 197.969C390.036 198.016 389.979 198.057 389.922 198.099C389.833 198.167 389.745 198.24 389.656 198.302C389.63 198.318 389.609 198.333 389.589 198.349L352.26 223.464C351.25 224.146 350.099 224.469 348.969 224.469C347.068 224.469 345.203 223.552 344.062 221.859C342.24 219.151 342.958 215.479 345.667 213.661L370.719 196.807C272.292 178.146 139.729 114.406 46.75 67.0469C43.8437 65.5677 42.6875 62.0104 44.1667 59.1041L44.1719 59.0989ZM296.604 85.7656C296.401 88.3854 297.036 90.4739 298.49 91.9739C300.052 93.5885 302.563 94.4375 305.318 94.3177C310.677 94.0573 314.578 90.2708 314.578 85.3177C314.578 78.9531 312.094 78.0573 304.234 76.1875C296.969 74.4583 284.807 71.5677 284.807 55.5625C284.807 46.1614 291.078 38.2031 299.656 35.6458V31.4062C299.656 28.1458 302.302 25.5 305.562 25.5C308.828 25.5 311.469 28.1458 311.469 31.4062V35.6302C320.083 38.1719 326.391 46.1458 326.391 55.5625C326.391 58.8281 323.75 61.4687 320.484 61.4687C317.224 61.4687 314.578 58.8229 314.578 55.5625C314.578 50.6198 310.547 46.5937 305.589 46.5937C300.63 46.5937 296.62 50.6198 296.62 55.5625C296.62 61.9271 299.104 62.8229 306.964 64.6927C314.229 66.4219 326.391 69.3125 326.391 85.3177C326.391 94.7187 320.271 102.49 311.469 105.156V109.495C311.469 112.76 308.828 115.406 305.562 115.406C302.302 115.406 299.656 112.76 299.656 109.495V105.552C295.922 104.672 292.568 102.839 290.01 100.198C286.208 96.276 284.37 90.8333 284.823 84.8646C285.073 81.6146 287.927 79.1771 291.161 79.4271C294.417 79.6771 296.849 82.5156 296.604 85.7708V85.7656ZM305.562 140.922C344.406 140.922 376.01 109.318 376.01 70.4635C376.01 31.6094 344.406 0.00518799 305.562 0.00518799C266.719 0.00518799 235.115 31.6094 235.115 70.4635C235.115 109.318 266.719 140.922 305.562 140.922ZM305.562 11.8177C337.896 11.8177 364.198 38.125 364.198 70.4635C364.198 102.802 337.896 129.109 305.562 129.109C273.234 129.109 246.927 102.802 246.927 70.4635C246.927 38.125 273.234 11.8177 305.562 11.8177ZM144.51 259.339H26.8594C23.026 259.339 19.901 262.464 19.901 266.297V297.75C19.901 301.589 23.026 304.708 26.8594 304.708H144.51C148.349 304.708 151.469 301.589 151.469 297.75V266.297C151.469 262.464 148.349 259.339 144.51 259.339ZM139.656 292.896H31.7135V271.156H139.656V292.896ZM94.1979 313.271H69.7344C66.0312 313.271 63.0156 316.286 63.0156 319.995V346.016C63.0156 349.734 66.0312 352.76 69.7344 352.76H94.1979C97.9063 352.76 100.917 349.734 100.917 346.016V319.995C100.917 316.286 97.9063 313.271 94.1979 313.271ZM89.1042 340.943H74.8281V325.089H89.1042V340.943ZM144.51 313.271H113.089C109.255 313.271 106.13 316.396 106.13 320.234V394.234C106.13 398.068 109.255 401.193 113.089 401.193H144.51C148.349 401.193 151.469 398.068 151.469 394.234V320.234C151.469 316.396 148.349 313.271 144.51 313.271ZM139.656 389.375H117.943V325.089H139.656V389.375ZM51.0833 361.729H26.6198C22.9167 361.729 19.901 364.745 19.901 368.448V394.474C19.901 398.177 22.9167 401.193 26.6198 401.193H51.0833C54.7917 401.193 57.8021 398.177 57.8021 394.474V368.448C57.8021 364.745 54.7917 361.729 51.0833 361.729ZM45.9896 389.375H31.7135V373.542H45.9896V389.375ZM94.1979 361.729H69.7344C66.0312 361.729 63.0156 364.745 63.0156 368.448V394.474C63.0156 398.177 66.0312 401.193 69.7344 401.193H94.1979C97.9063 401.193 100.917 398.177 100.917 394.474V368.448C100.917 364.745 97.9063 361.729 94.1979 361.729ZM89.1042 389.375H74.8281V373.542H89.1042V389.375ZM51.0833 313.271H26.6198C22.9167 313.271 19.901 316.286 19.901 319.995V346.016C19.901 349.734 22.9167 352.76 26.6198 352.76H51.0833C54.7917 352.76 57.8021 349.734 57.8021 346.016V319.995C57.8021 316.286 54.7917 313.271 51.0833 313.271ZM45.9896 340.943H31.7135V325.089H45.9896V340.943Z" fill="white" stroke="black" stroke-width="4" mask="url(#path-2-inside-1_627_294)"/>
</g>
</svg>
