<svg width="820" height="228" viewBox="0 0 820 228" fill="none" xmlns="http://www.w3.org/2000/svg">
<path d="M320.723 4.88336C345.682 2.30336 367.318 11.6506 378.489 34.4867C382.144 41.9584 383.391 47.3036 385.818 55.0536L393.611 80.2524L414.781 148.012C416.977 154.922 420.742 169.044 424.067 175.257C427.879 175.834 437.005 175.602 441.354 175.598L473.509 175.57L513.65 175.601C528.497 175.611 549.693 178.936 553.166 159.206C554.578 151.171 552.526 146.662 548.117 140.33C540.688 136.381 524.488 137.52 515.806 137.531L471.209 137.627C404.514 137.704 391.988 24.735 458.094 10.9736C473.933 7.67684 494.75 8.93156 511.317 8.92552L590.774 8.98868C591.01 23.1024 590.834 39.1747 590.57 53.3156L515.894 53.3712C503.924 53.348 491.965 53.2272 479.995 53.4116C472.145 53.5328 466.708 57.4048 463.731 64.704C459.51 75.1816 461.967 90.0024 474.349 93.3536C477.862 94.3036 484.884 93.8364 488.82 93.8332L522.716 93.7636C535.542 93.7788 541.08 92.896 553.034 97.7384C573.783 105.742 598.78 126.995 600.316 150.814C601.629 171.125 593.527 192.415 578.72 206.49C563.156 221.28 549.357 220.095 529.641 220.068L495.794 220.058L427.403 220.066C414.353 220.078 400.494 220.328 387.489 219.985C386.292 216.714 385.524 213.253 384.403 209.946C378.719 193.176 373.456 176.272 368.152 159.379C361.475 138.11 354.137 117.034 347.394 95.788C345.671 90.3568 336.014 58.4308 334.393 56.3016C333.214 54.7524 331.539 53.7308 329.6 53.4708C327.666 53.2116 325.711 53.672 324.166 54.8756C322.328 56.3068 321.177 58.3628 320.38 60.5132C318.965 64.3264 317.991 68.3716 316.751 72.2512L307.677 100.613L282.892 178.294L274.173 205.358C273.021 208.857 270.054 216.969 269.652 220.086C253.271 220.043 236.5 220.276 220.172 219.491C221.595 210.522 225.262 201.606 227.937 192.848L244.378 139.574L262.646 80.3804L269.518 58.2024C271.344 52.178 273.014 46.1636 275.067 40.2028C282.778 17.8035 298.895 9.43432 320.723 4.88336Z" fill="white"/>
<path d="M57.8467 4.57628C63.8384 4.13724 71.7313 4.17464 77.5749 5.2152C95.0831 8.33292 113.515 20.8263 120.883 37.3012C126.221 49.914 129.13 63.5088 133.018 76.6484C138.966 96.7444 144.272 117.075 150.267 137.16C152.864 145.114 154.34 153.444 157.42 161.243C159.488 166.481 161.113 175.483 166.011 178.576C168.473 180.132 171.47 179.368 174.079 178.685L177.191 175.49C177.699 169.801 177.47 161.845 177.458 155.95L177.443 124.651C177.44 86.6036 176.927 47.3332 177.606 9.41544C182.381 9.00132 190.523 9.21968 195.454 9.22116C205.483 9.18528 215.512 9.22824 225.54 9.35016C225.073 47.866 225.345 86.9244 225.368 125.501L225.415 157.971C225.418 161.652 225.367 165.458 225.398 169.124C225.637 197.451 214.992 219.384 185.487 225.117C178.337 225.465 168.123 225.834 161.054 224.662C146.512 222.133 133.045 217.128 123.656 205.231C117.549 197.492 116.735 191.595 114.118 182.586L105.891 153.569L85.5418 83.5992C83.3442 75.8532 79.5745 51.6688 69.5684 51.002C56.9049 50.1584 58.2604 66.4788 58.3112 74.9636L58.3592 96.0964L58.3612 177.491L58.4012 203.03C58.4076 207.96 58.5893 214.807 58.0636 219.578C46.8164 219.493 35.5688 219.58 24.3245 219.838C20.8041 219.894 15.6306 219.539 12.4399 219.876C12.1986 206.133 12.4053 191.749 12.4125 177.96L12.442 102.764L12.396 67.5888C12.3789 57.9132 11.8624 48.1812 14.0231 38.7823C17.1594 25.1391 24.0044 13.3423 37.898 8.67844C45.3656 6.17168 50.0794 4.8684 57.8467 4.57628Z" fill="white"/>
<path d="M692.4 4.8954C705.495 4.11632 716.213 4.8088 728.132 10.9178C748.656 21.4383 753.577 41.7564 759.482 61.8236L769.936 97.1104L792.337 171.094C797.21 187.238 801.879 203.962 806.952 220.008C790.997 220.155 775.042 220.157 759.082 220.014C756.046 209.698 752.765 200.167 749.556 190.058L724.539 112.6L715.725 85.0332C713.5 77.9284 708.459 59.9636 704.811 54.5828C699.701 51.4516 694.74 54.178 692.796 59.4436C689.803 67.5392 687.371 75.604 684.79 83.82L676.645 109.309C666.554 141.874 655.348 174.23 645.362 206.851C644.09 211.012 642.293 215.792 641.593 220.046C624.749 220.081 607.906 220.018 591.062 219.857C592.727 212.975 595.311 206.429 597.368 199.752L613.227 148.927L637.74 69.5308C649.075 33.4404 649.951 13.6268 692.4 4.8954Z" fill="white"/>
</svg>
