<svg width="432" height="432" viewBox="0 0 432 432" fill="none" xmlns="http://www.w3.org/2000/svg">
<mask id="mask0_627_304" style="mask-type:luminance" maskUnits="userSpaceOnUse" x="0" y="0" width="432" height="432">
<path d="M430.5 1.5V430.5H1.5V1.5H430.5Z" fill="white" stroke="white" stroke-width="3"/>
</mask>
<g mask="url(#mask0_627_304)">
<mask id="path-2-inside-1_627_304" fill="white">
<path fill-rule="evenodd" clip-rule="evenodd" d="M83.349 276.323C85.0729 279.76 83.6823 283.953 80.2448 285.672C76.8073 287.401 72.6198 286.01 70.8906 282.568C65.4115 271.646 61.0938 260.151 57.9792 248.302L28.7292 237.042C26.0417 236.01 24.2656 233.422 24.2656 230.542V177.266C24.2656 174.38 26.0417 171.797 28.7292 170.76L57.9792 159.505C62.0781 143.854 68.2708 128.901 76.4531 114.974L63.7135 86.3073C62.5417 83.6719 63.1146 80.5885 65.151 78.5521L102.813 40.8854C104.854 38.849 107.938 38.276 110.573 39.4479L139.234 52.1927C153.161 44.0104 168.115 37.8177 183.724 33.7552L195.026 4.45833C196.063 1.77604 198.646 0 201.526 0H254.807C257.688 0 260.276 1.77604 261.307 4.46875L272.563 33.7604C288.167 37.8177 303.12 44.0104 317.042 52.1927L345.703 39.4479C348.339 38.276 351.422 38.849 353.464 40.8854L391.125 78.5521C393.161 80.5885 393.74 83.6667 392.573 86.3021C392.573 86.3021 379.875 114.969 379.875 114.964C388.057 128.896 394.25 143.854 398.313 159.51L427.547 170.76C430.24 171.797 432.01 174.38 432.01 177.266V230.542C432.01 233.422 430.24 236.005 427.547 237.042L398.307 248.297C394.245 263.901 388.016 278.849 379.87 292.776L392.573 321.448C393.74 324.083 393.161 327.161 391.125 329.198L353.464 366.865C351.427 368.901 348.349 369.474 345.714 368.307L317.052 355.609C303.161 363.792 288.172 369.984 272.557 374.047L261.307 403.281C260.271 405.974 257.688 407.75 254.807 407.75H201.526C198.646 407.75 196.063 405.974 195.026 403.281L183.771 374.047C171.911 370.969 160.443 366.641 149.526 361.177C146.089 359.458 144.693 355.271 146.411 351.828C148.13 348.391 152.318 346.995 155.76 348.714C166.818 354.245 178.484 358.516 190.578 361.38C192.818 361.911 194.651 363.51 195.474 365.656L206.313 393.813H250.021L260.854 365.656C261.682 363.51 263.51 361.911 265.75 361.38C282.406 357.422 298.344 350.844 312.896 341.844C314.849 340.635 317.276 340.469 319.38 341.401L346.99 353.63L377.896 322.724L365.667 295.115C364.74 293.021 364.901 290.609 366.094 288.656C375.047 274.047 381.682 258.151 385.646 241.484C386.177 239.25 387.776 237.417 389.922 236.594L418.078 225.755V182.047L389.922 171.214C387.776 170.385 386.172 168.552 385.646 166.313C381.688 149.604 375.104 133.714 366.104 119.109C364.901 117.156 364.734 114.734 365.667 112.635L377.896 85.026L346.995 54.125L319.391 66.401C317.286 67.3333 314.859 67.1719 312.906 65.9635C298.297 56.9635 282.411 50.3802 265.75 46.4219C263.51 45.8906 261.682 44.2917 260.854 42.1406L250.016 13.9375H206.307L195.422 42.151C194.594 44.2969 192.766 45.8906 190.531 46.4219C173.87 50.3802 157.979 56.9635 143.375 65.9635C141.417 67.1719 138.99 67.3333 136.891 66.401L109.286 54.125L78.3906 85.0208L90.6615 112.625C91.599 114.724 91.4323 117.151 90.2292 119.109C81.224 133.719 74.6406 149.615 70.6302 166.333C70.0938 168.563 68.4948 170.385 66.3594 171.214L38.2031 182.047V225.755L66.3594 236.594C68.4948 237.417 70.0938 239.24 70.6302 241.464C73.5365 253.547 77.7969 265.25 83.349 276.323ZM300.203 121.745C280.964 104.87 255.745 94.6458 228.141 94.6458C167.786 94.6458 118.911 143.521 118.911 203.875C118.911 215.443 120.703 226.594 124.031 237.063C125.198 240.729 123.172 244.651 119.505 245.813C115.839 246.979 111.922 244.953 110.755 241.286C107 229.484 104.974 216.917 104.974 203.875C104.974 135.823 160.089 80.7135 228.141 80.7135C259.609 80.7135 288.328 92.5 310.109 111.901L306.505 94.849C305.714 91.0885 308.12 87.3854 311.885 86.5938C315.646 85.7969 319.349 88.2083 320.141 91.9688L327.745 127.979C328.188 130.078 327.641 132.26 326.266 133.901C324.885 135.542 322.833 136.458 320.693 136.385L283.906 135.13C280.063 135 277.052 131.776 277.182 127.932C277.313 124.089 280.536 121.073 284.38 121.203L300.203 121.745ZM190.781 321.339C187.12 320.172 185.089 316.25 186.255 312.583C187.417 308.922 191.339 306.891 195.005 308.057C205.453 311.38 216.589 313.172 228.141 313.172C288.495 313.172 337.432 264.229 337.432 203.875C337.432 200.031 340.557 196.906 344.401 196.906C348.25 196.906 351.37 200.031 351.37 203.875C351.37 271.927 296.188 327.104 228.141 327.104C215.115 327.104 202.563 325.083 190.781 321.339ZM11.3802 420.698C4.14062 413.464 0.078125 403.646 0.078125 393.411C0.078125 383.177 4.14062 373.365 11.3802 366.13C11.3802 366.13 138.438 239.073 158.964 218.542C153.938 195.557 160.385 170.589 178.177 152.802C197.922 133.052 226.214 127.307 250.984 135.422C253.286 136.177 255.031 138.068 255.594 140.427C256.156 142.781 255.458 145.26 253.745 146.969L210.776 189.943L217.432 214.646L242.141 221.302L285.109 178.333C286.823 176.62 289.302 175.922 291.661 176.484C294.016 177.052 295.911 178.802 296.661 181.104C304.703 205.802 298.958 234.094 279.214 253.839C261.432 271.62 236.479 278.068 213.552 273.099L65.9479 420.698C58.7135 427.938 48.901 432 38.6667 432C28.4323 432 18.6198 427.938 11.3802 420.698ZM21.2344 410.844C25.8594 415.469 32.1302 418.068 38.6667 418.068C45.2031 418.068 51.474 415.469 56.099 410.844L206.479 260.464C208.255 258.688 210.854 258.005 213.276 258.677C232.583 264.063 254.208 259.135 269.359 243.984C282.182 231.167 287.672 213.875 285.922 197.229L249.141 234.005C247.38 235.771 244.807 236.458 242.401 235.807L209.932 227.063C207.536 226.411 205.667 224.542 205.021 222.146L196.271 189.677C195.62 187.271 196.307 184.698 198.073 182.938L234.875 146.13C218.182 144.333 200.865 149.818 188.031 162.656C172.875 177.813 167.953 199.443 173.385 218.802C174.068 221.224 173.385 223.828 171.604 225.609L21.2344 375.984C16.6094 380.604 14.0104 386.875 14.0104 393.411C14.0104 399.953 16.6094 406.219 21.2344 410.844ZM39.849 381.635C45.7969 381.635 50.625 386.464 50.625 392.411C50.625 398.354 45.7969 403.182 39.849 403.182C33.901 403.182 29.0729 398.354 29.0729 392.411C29.0729 386.464 33.901 381.635 39.849 381.635Z"/>
</mask>
<path fill-rule="evenodd" clip-rule="evenodd" d="M83.349 276.323C85.0729 279.76 83.6823 283.953 80.2448 285.672C76.8073 287.401 72.6198 286.01 70.8906 282.568C65.4115 271.646 61.0938 260.151 57.9792 248.302L28.7292 237.042C26.0417 236.01 24.2656 233.422 24.2656 230.542V177.266C24.2656 174.38 26.0417 171.797 28.7292 170.76L57.9792 159.505C62.0781 143.854 68.2708 128.901 76.4531 114.974L63.7135 86.3073C62.5417 83.6719 63.1146 80.5885 65.151 78.5521L102.813 40.8854C104.854 38.849 107.938 38.276 110.573 39.4479L139.234 52.1927C153.161 44.0104 168.115 37.8177 183.724 33.7552L195.026 4.45833C196.063 1.77604 198.646 0 201.526 0H254.807C257.688 0 260.276 1.77604 261.307 4.46875L272.563 33.7604C288.167 37.8177 303.12 44.0104 317.042 52.1927L345.703 39.4479C348.339 38.276 351.422 38.849 353.464 40.8854L391.125 78.5521C393.161 80.5885 393.74 83.6667 392.573 86.3021C392.573 86.3021 379.875 114.969 379.875 114.964C388.057 128.896 394.25 143.854 398.313 159.51L427.547 170.76C430.24 171.797 432.01 174.38 432.01 177.266V230.542C432.01 233.422 430.24 236.005 427.547 237.042L398.307 248.297C394.245 263.901 388.016 278.849 379.87 292.776L392.573 321.448C393.74 324.083 393.161 327.161 391.125 329.198L353.464 366.865C351.427 368.901 348.349 369.474 345.714 368.307L317.052 355.609C303.161 363.792 288.172 369.984 272.557 374.047L261.307 403.281C260.271 405.974 257.688 407.75 254.807 407.75H201.526C198.646 407.75 196.063 405.974 195.026 403.281L183.771 374.047C171.911 370.969 160.443 366.641 149.526 361.177C146.089 359.458 144.693 355.271 146.411 351.828C148.13 348.391 152.318 346.995 155.76 348.714C166.818 354.245 178.484 358.516 190.578 361.38C192.818 361.911 194.651 363.51 195.474 365.656L206.313 393.813H250.021L260.854 365.656C261.682 363.51 263.51 361.911 265.75 361.38C282.406 357.422 298.344 350.844 312.896 341.844C314.849 340.635 317.276 340.469 319.38 341.401L346.99 353.63L377.896 322.724L365.667 295.115C364.74 293.021 364.901 290.609 366.094 288.656C375.047 274.047 381.682 258.151 385.646 241.484C386.177 239.25 387.776 237.417 389.922 236.594L418.078 225.755V182.047L389.922 171.214C387.776 170.385 386.172 168.552 385.646 166.313C381.688 149.604 375.104 133.714 366.104 119.109C364.901 117.156 364.734 114.734 365.667 112.635L377.896 85.026L346.995 54.125L319.391 66.401C317.286 67.3333 314.859 67.1719 312.906 65.9635C298.297 56.9635 282.411 50.3802 265.75 46.4219C263.51 45.8906 261.682 44.2917 260.854 42.1406L250.016 13.9375H206.307L195.422 42.151C194.594 44.2969 192.766 45.8906 190.531 46.4219C173.87 50.3802 157.979 56.9635 143.375 65.9635C141.417 67.1719 138.99 67.3333 136.891 66.401L109.286 54.125L78.3906 85.0208L90.6615 112.625C91.599 114.724 91.4323 117.151 90.2292 119.109C81.224 133.719 74.6406 149.615 70.6302 166.333C70.0938 168.563 68.4948 170.385 66.3594 171.214L38.2031 182.047V225.755L66.3594 236.594C68.4948 237.417 70.0938 239.24 70.6302 241.464C73.5365 253.547 77.7969 265.25 83.349 276.323ZM300.203 121.745C280.964 104.87 255.745 94.6458 228.141 94.6458C167.786 94.6458 118.911 143.521 118.911 203.875C118.911 215.443 120.703 226.594 124.031 237.063C125.198 240.729 123.172 244.651 119.505 245.813C115.839 246.979 111.922 244.953 110.755 241.286C107 229.484 104.974 216.917 104.974 203.875C104.974 135.823 160.089 80.7135 228.141 80.7135C259.609 80.7135 288.328 92.5 310.109 111.901L306.505 94.849C305.714 91.0885 308.12 87.3854 311.885 86.5938C315.646 85.7969 319.349 88.2083 320.141 91.9688L327.745 127.979C328.188 130.078 327.641 132.26 326.266 133.901C324.885 135.542 322.833 136.458 320.693 136.385L283.906 135.13C280.063 135 277.052 131.776 277.182 127.932C277.313 124.089 280.536 121.073 284.38 121.203L300.203 121.745ZM190.781 321.339C187.12 320.172 185.089 316.25 186.255 312.583C187.417 308.922 191.339 306.891 195.005 308.057C205.453 311.38 216.589 313.172 228.141 313.172C288.495 313.172 337.432 264.229 337.432 203.875C337.432 200.031 340.557 196.906 344.401 196.906C348.25 196.906 351.37 200.031 351.37 203.875C351.37 271.927 296.188 327.104 228.141 327.104C215.115 327.104 202.563 325.083 190.781 321.339ZM11.3802 420.698C4.14062 413.464 0.078125 403.646 0.078125 393.411C0.078125 383.177 4.14062 373.365 11.3802 366.13C11.3802 366.13 138.438 239.073 158.964 218.542C153.938 195.557 160.385 170.589 178.177 152.802C197.922 133.052 226.214 127.307 250.984 135.422C253.286 136.177 255.031 138.068 255.594 140.427C256.156 142.781 255.458 145.26 253.745 146.969L210.776 189.943L217.432 214.646L242.141 221.302L285.109 178.333C286.823 176.62 289.302 175.922 291.661 176.484C294.016 177.052 295.911 178.802 296.661 181.104C304.703 205.802 298.958 234.094 279.214 253.839C261.432 271.62 236.479 278.068 213.552 273.099L65.9479 420.698C58.7135 427.938 48.901 432 38.6667 432C28.4323 432 18.6198 427.938 11.3802 420.698ZM21.2344 410.844C25.8594 415.469 32.1302 418.068 38.6667 418.068C45.2031 418.068 51.474 415.469 56.099 410.844L206.479 260.464C208.255 258.688 210.854 258.005 213.276 258.677C232.583 264.063 254.208 259.135 269.359 243.984C282.182 231.167 287.672 213.875 285.922 197.229L249.141 234.005C247.38 235.771 244.807 236.458 242.401 235.807L209.932 227.063C207.536 226.411 205.667 224.542 205.021 222.146L196.271 189.677C195.62 187.271 196.307 184.698 198.073 182.938L234.875 146.13C218.182 144.333 200.865 149.818 188.031 162.656C172.875 177.813 167.953 199.443 173.385 218.802C174.068 221.224 173.385 223.828 171.604 225.609L21.2344 375.984C16.6094 380.604 14.0104 386.875 14.0104 393.411C14.0104 399.953 16.6094 406.219 21.2344 410.844ZM39.849 381.635C45.7969 381.635 50.625 386.464 50.625 392.411C50.625 398.354 45.7969 403.182 39.849 403.182C33.901 403.182 29.0729 398.354 29.0729 392.411C29.0729 386.464 33.901 381.635 39.849 381.635Z" fill="white" stroke="black" stroke-width="6" mask="url(#path-2-inside-1_627_304)"/>
</g>
</svg>
