<svg width="440" height="440" viewBox="0 0 440 440" fill="none" xmlns="http://www.w3.org/2000/svg">
<g filter="url(#filter0_d_627_299)">
<mask id="mask0_627_299" style="mask-type:luminance" maskUnits="userSpaceOnUse" x="4" y="0" width="432" height="432">
<path d="M4 0H436V432H4V0Z" fill="white"/>
</mask>
<g mask="url(#mask0_627_299)">
<path d="M264.13 248.578C269.688 248.599 269.661 257.052 264.13 257.073H219.87C214.297 257.052 214.318 248.599 219.87 248.578H264.13ZM220.109 88.5729C224.24 84.8333 218.578 78.5469 214.448 82.2604L185.922 107.891L171.182 95.1406C166.969 91.5313 161.438 97.9063 165.63 101.583L183.198 116.776C183.99 117.469 184.911 117.813 185.964 117.813C187.057 117.813 188.01 117.443 188.818 116.708L220.109 88.5729ZM264.13 216.078H219.87C214.318 216.099 214.297 224.547 219.87 224.568H264.13C269.661 224.547 269.688 216.099 264.13 216.078ZM268.365 187.807C268.365 187.25 268.26 186.708 268.047 186.188C267.828 185.672 267.526 185.214 267.125 184.813C266.729 184.417 266.271 184.109 265.75 183.896C265.234 183.682 264.693 183.573 264.13 183.573H175.594C175.057 183.609 174.542 183.745 174.057 183.979C173.573 184.214 173.146 184.526 172.781 184.917C172.411 185.313 172.13 185.76 171.932 186.26C171.734 186.76 171.635 187.281 171.635 187.818C171.635 188.359 171.734 188.88 171.932 189.38C172.13 189.88 172.411 190.328 172.781 190.719C173.146 191.115 173.573 191.427 174.057 191.661C174.542 191.891 175.057 192.026 175.594 192.068H264.13C264.693 192.063 265.234 191.953 265.755 191.734C266.271 191.521 266.729 191.214 267.13 190.813C267.526 190.411 267.828 189.953 268.047 189.432C268.26 188.911 268.365 188.37 268.365 187.807ZM264.13 313.604H197.073C191.542 313.625 191.495 322.078 197.073 322.099H264.13C269.661 322.078 269.708 313.625 264.13 313.604ZM433.734 134.516L309.234 416.193C308.885 416.979 308.505 417.745 308.083 418.495C307.661 419.245 307.203 419.974 306.708 420.677C306.214 421.38 305.688 422.057 305.13 422.714C304.568 423.365 303.979 423.99 303.359 424.583C302.74 425.177 302.089 425.74 301.411 426.271C300.734 426.802 300.036 427.297 299.307 427.76C298.583 428.219 297.839 428.646 297.073 429.031C296.302 429.422 295.521 429.771 294.719 430.083C293.917 430.396 293.104 430.667 292.276 430.896C291.448 431.13 290.609 431.318 289.76 431.469C288.917 431.615 288.063 431.724 287.208 431.786C286.349 431.854 285.49 431.875 284.63 431.859C283.771 431.839 282.917 431.776 282.063 431.672C281.208 431.568 280.365 431.427 279.521 431.24C278.682 431.052 277.854 430.823 277.042 430.557C276.224 430.286 275.422 429.979 274.635 429.635L118.432 360.609H87.5052C73.0469 360.609 61.2708 348.854 61.2708 334.396V313.474C60.6198 312.969 59.9219 312.542 59.1719 312.203C58.0729 320.802 50.7917 327.479 41.9063 327.479H21.5729C11.8906 327.479 4 319.635 4 309.974V217.417C4 207.776 11.8906 199.911 21.5729 199.911H41.9063C50.1406 199.911 57.0156 205.661 58.8698 213.333C59.651 213.333 60.4948 213.224 61.2708 213.182V26.375C61.2708 11.9167 73.0469 0.140625 87.5052 0.140625H279.063C293.521 0.140625 305.276 11.9167 305.276 26.375V49.0469L420.354 99.9167C433.365 105.297 439.719 121.766 433.734 134.516ZM50.9167 217.589C50.9271 216.99 50.8802 216.396 50.7708 215.807C50.6615 215.219 50.5 214.651 50.276 214.094C50.0573 213.536 49.7813 213.01 49.4531 212.51C49.125 212.01 48.7552 211.547 48.3333 211.12C47.9167 210.693 47.4583 210.313 46.9635 209.974C46.4688 209.641 45.9427 209.359 45.3906 209.125C44.8385 208.896 44.2708 208.719 43.6823 208.604C43.099 208.484 42.5052 208.427 41.9063 208.427H21.5729C20.9792 208.427 20.3906 208.479 19.8125 208.594C19.2292 208.708 18.6667 208.88 18.1198 209.104C17.5677 209.328 17.0469 209.604 16.5573 209.932C16.0625 210.26 15.6042 210.63 15.1875 211.047C14.7656 211.464 14.3906 211.922 14.0573 212.411C13.7292 212.901 13.4479 213.422 13.2188 213.969C12.9896 214.516 12.8177 215.078 12.6979 215.656C12.5781 216.24 12.5208 216.823 12.5156 217.417V309.974C12.5156 310.568 12.5781 311.156 12.6927 311.74C12.8125 312.318 12.9844 312.885 13.2135 313.432C13.4427 313.979 13.7188 314.5 14.0521 314.99C14.3802 315.484 14.7552 315.938 15.1771 316.354C15.599 316.776 16.0573 317.146 16.5469 317.474C17.0417 317.807 17.5625 318.083 18.1146 318.307C18.6615 318.531 19.2292 318.703 19.8073 318.818C20.3906 318.932 20.9792 318.99 21.5729 318.984H41.9063C42.5 318.984 43.0833 318.927 43.6667 318.813C44.2448 318.698 44.8073 318.526 45.3542 318.302C45.901 318.073 46.4219 317.797 46.9115 317.469C47.4063 317.141 47.8594 316.766 48.2813 316.349C48.6979 315.927 49.0729 315.474 49.401 314.979C49.7292 314.49 50.0052 313.969 50.2344 313.422C50.4583 312.875 50.6302 312.313 50.7448 311.734C50.8594 311.151 50.9167 310.568 50.9167 309.974V217.589ZM80.6563 313.604H144.646C155.906 313.474 156.682 297.656 145.552 297.031H121.521C120.958 297.031 120.411 296.922 119.891 296.708C119.37 296.49 118.911 296.182 118.51 295.781C118.109 295.385 117.802 294.922 117.589 294.401C117.37 293.88 117.266 293.339 117.266 292.771C117.266 292.208 117.37 291.667 117.589 291.146C117.802 290.62 118.109 290.161 118.51 289.76C118.911 289.365 119.37 289.057 119.891 288.839C120.411 288.625 120.958 288.516 121.521 288.516H145.313C151.193 288.063 160.401 290.005 163.771 286.094C168.938 281.146 165.089 271.745 157.917 271.964H121.521C115.969 271.943 115.99 263.49 121.521 263.469H160.833C164.807 263.167 173.344 264.724 176.219 261.068C181.516 256.141 177.599 246.74 170.427 246.938C170.339 246.87 121.63 246.938 121.521 246.917C115.969 246.891 115.99 238.443 121.521 238.422C128.438 238.401 174.641 238.443 180.344 238.443C191.625 237.948 190.911 222 179.589 221.844H126.75C123.594 221.932 121.411 218.193 123.057 215.516C131.677 200.281 135.505 182.297 137.214 169.896C138.01 164.057 133.323 158.698 127.313 158.745C122.536 158.745 118.385 162.245 117.63 166.891C116.01 176.484 113.156 185.089 109.141 192.5C99.7188 210.26 79.9844 221.672 59.4115 221.844V302.974C67 305.156 72.2917 313.714 80.6563 313.604ZM279.063 352.115C280.229 352.115 281.38 352 282.521 351.771C283.661 351.542 284.766 351.208 285.844 350.76C286.917 350.318 287.938 349.771 288.906 349.125C289.87 348.474 290.766 347.74 291.589 346.922C292.411 346.099 293.146 345.203 293.792 344.234C294.438 343.271 294.984 342.25 295.432 341.172C295.875 340.099 296.214 338.99 296.443 337.849C296.667 336.708 296.781 335.557 296.786 334.396V26.375C296.781 25.2135 296.667 24.0625 296.443 22.9219C296.214 21.776 295.875 20.6719 295.432 19.5938C294.984 18.5208 294.438 17.5 293.792 16.5313C293.146 15.5625 292.411 14.6667 291.589 13.8438C290.766 13.0208 289.875 12.2865 288.906 11.6406C287.938 10.9896 286.917 10.4427 285.844 9.99479C284.771 9.55208 283.661 9.21354 282.521 8.98438C281.38 8.75521 280.229 8.63542 279.063 8.63542H87.5052C86.3438 8.63542 85.1875 8.75521 84.0469 8.98438C82.9063 9.21354 81.7969 9.54687 80.724 9.99479C79.6458 10.4427 78.625 10.9896 77.6615 11.6354C76.6927 12.2865 75.7969 13.0208 74.974 13.8438C74.151 14.6667 73.4167 15.5625 72.7656 16.5313C72.1198 17.4948 71.5729 18.5208 71.125 19.5938C70.6771 20.6667 70.3385 21.776 70.1094 22.9167C69.8802 24.0573 69.7656 25.2135 69.7656 26.375V212.057C92.2604 207.411 106.094 187.917 109.245 165.505C110.651 156.688 118.26 150.25 127.313 150.25C138.354 150.182 147.042 160.016 145.661 170.844C144.063 182.495 140.734 198.552 133.729 213.354H179.589C199.276 213.464 203.88 240.693 184.667 246.375C191.219 256.141 184.281 270.818 172.417 271.854C178.594 281.646 171.443 295.969 159.859 296.901C166.729 307.771 157.224 322.531 144.646 322.099H80.6563C77.026 322.12 73.0938 320.995 69.7656 319.354V334.396C69.7656 335.557 69.8802 336.714 70.1094 337.854C70.3385 338.995 70.6771 340.099 71.125 341.177C71.5729 342.25 72.1198 343.271 72.7656 344.24C73.4167 345.203 74.151 346.099 74.974 346.922C75.7969 347.745 76.6927 348.479 77.6615 349.125C78.6302 349.771 79.651 350.318 80.724 350.76C81.8021 351.208 82.9063 351.547 84.0469 351.771C85.1875 352 86.3438 352.115 87.5052 352.115C106.63 352.052 256.005 352.224 279.063 352.115ZM416.922 107.698L305.276 58.3385V334.396C305.276 335.255 305.234 336.109 305.151 336.964C305.068 337.818 304.938 338.667 304.771 339.51C304.604 340.349 304.396 341.182 304.146 342C303.896 342.823 303.604 343.63 303.276 344.422C302.948 345.219 302.583 345.99 302.177 346.75C301.771 347.505 301.333 348.24 300.854 348.953C300.375 349.667 299.865 350.354 299.323 351.021C298.776 351.682 298.203 352.318 297.594 352.927C296.99 353.531 296.354 354.109 295.688 354.651C295.026 355.198 294.339 355.708 293.625 356.182C292.911 356.661 292.172 357.104 291.417 357.505C290.661 357.911 289.885 358.281 289.094 358.609C288.302 358.938 287.495 359.224 286.672 359.474C285.849 359.724 285.021 359.932 284.177 360.104C283.333 360.271 282.49 360.396 281.635 360.479C280.781 360.568 279.922 360.609 279.063 360.609H139.458L278.047 421.854C280.214 422.818 282.479 423.323 284.849 423.375C287.219 423.422 289.505 423.01 291.708 422.135C293.896 421.297 295.833 420.063 297.526 418.438C299.214 416.818 300.526 414.927 301.453 412.776C301.453 412.776 425.974 131.083 425.953 131.083C430.016 122.458 425.714 111.328 416.922 107.698ZM264.13 289.594C269.661 289.573 269.708 281.125 264.13 281.083H194.672C189.141 281.104 189.12 289.552 194.672 289.594H264.13ZM182.505 158.917C157.891 147.094 132.76 113.276 129.563 79.5417C129.417 78.4583 129.375 77.3698 129.438 76.2813C129.495 75.1875 129.661 74.1146 129.927 73.0521C130.188 71.9948 130.552 70.9688 131.01 69.9792C131.469 68.9844 132.016 68.0469 132.656 67.1563C133.292 66.2708 134.005 65.4531 134.797 64.6979C135.589 63.9479 136.443 63.276 137.365 62.6823C138.281 62.0938 139.25 61.5938 140.266 61.1875C141.276 60.7813 142.318 60.474 143.391 60.2604C160.052 57 171.292 47.6198 177.797 40.3594C178.203 39.8958 178.635 39.4583 179.089 39.0469C179.542 38.6302 180.021 38.2396 180.516 37.875C181.01 37.5104 181.521 37.1771 182.052 36.8646C182.583 36.5573 183.13 36.2708 183.693 36.0208C184.255 35.7708 184.828 35.5469 185.411 35.3542C185.995 35.1615 186.589 35 187.188 34.875C187.792 34.7448 188.396 34.6458 189.01 34.5833C189.62 34.5156 190.234 34.4844 190.849 34.4844C191.464 34.4844 192.078 34.5156 192.688 34.5833C193.302 34.6458 193.906 34.7448 194.51 34.875C195.109 35 195.703 35.1615 196.286 35.3542C196.87 35.5469 197.443 35.7708 198.005 36.0208C198.568 36.2708 199.115 36.5573 199.646 36.8646C200.177 37.1771 200.688 37.5104 201.182 37.875C201.677 38.2396 202.156 38.6302 202.609 39.0469C203.063 39.4583 203.495 39.8958 203.901 40.3594C210.406 47.6198 221.646 56.9792 238.307 60.2604C239.38 60.474 240.422 60.7813 241.438 61.1875C242.448 61.5938 243.417 62.0938 244.339 62.6823C245.255 63.276 246.115 63.9479 246.906 64.6979C247.698 65.4479 248.411 66.2708 249.052 67.1563C249.688 68.0469 250.24 68.9844 250.698 69.974C251.156 70.9635 251.521 71.9896 251.786 73.0521C252.052 74.1094 252.219 75.1875 252.281 76.276C252.344 77.3698 252.302 78.4583 252.156 79.5417C248.958 113.25 223.849 147.073 199.214 158.917C197.932 159.609 196.583 160.135 195.167 160.495C193.755 160.854 192.318 161.036 190.859 161.036C189.401 161.036 187.964 160.854 186.552 160.495C185.135 160.135 183.792 159.609 182.505 158.917ZM186.547 151.438C187.896 152.161 189.333 152.526 190.859 152.526C192.391 152.526 193.823 152.161 195.172 151.438C217.714 140.719 240.88 109.234 243.729 78.3958C243.802 77.8438 243.823 77.2865 243.786 76.7344C243.755 76.1771 243.672 75.6302 243.536 75.0885C243.396 74.5521 243.214 74.0313 242.979 73.526C242.745 73.0208 242.464 72.5417 242.135 72.0885C241.813 71.6406 241.448 71.224 241.042 70.8385C240.641 70.4583 240.203 70.1146 239.734 69.8125C239.266 69.5156 238.776 69.2604 238.255 69.0521C237.74 68.849 237.208 68.6875 236.661 68.5833C217.688 64.8646 204.938 54.2552 197.568 46.0208C194.135 42 187.563 42 184.151 46.0208C176.781 54.2552 164.01 64.8646 145.036 68.5833C144.49 68.6875 143.958 68.849 143.443 69.0521C142.922 69.2604 142.432 69.5156 141.964 69.8125C141.495 70.1146 141.057 70.4583 140.656 70.8385C140.25 71.224 139.885 71.6406 139.563 72.0885C139.234 72.5417 138.953 73.0208 138.719 73.526C138.484 74.0313 138.302 74.5521 138.161 75.0885C138.026 75.6302 137.943 76.1771 137.911 76.7344C137.875 77.2865 137.896 77.8438 137.969 78.3958C139.802 92.0313 144.063 104.714 150.589 116.104C161.547 135.167 176.198 145.839 186.547 151.438Z" fill="white"/>
</g>
</g>
<defs>
<filter id="filter0_d_627_299" x="0" y="0.140625" width="440" height="439.724" filterUnits="userSpaceOnUse" color-interpolation-filters="sRGB">
<feFlood flood-opacity="0" result="BackgroundImageFix"/>
<feColorMatrix in="SourceAlpha" type="matrix" values="0 0 0 0 0 0 0 0 0 0 0 0 0 0 0 0 0 0 127 0" result="hardAlpha"/>
<feOffset dy="4"/>
<feGaussianBlur stdDeviation="2"/>
<feComposite in2="hardAlpha" operator="out"/>
<feColorMatrix type="matrix" values="0 0 0 0 0 0 0 0 0 0 0 0 0 0 0 0 0 0 0.25 0"/>
<feBlend mode="normal" in2="BackgroundImageFix" result="effect1_dropShadow_627_299"/>
<feBlend mode="normal" in="SourceGraphic" in2="effect1_dropShadow_627_299" result="shape"/>
</filter>
</defs>
</svg>
