<svg width="516" height="336" viewBox="0 0 516 336" fill="none" xmlns="http://www.w3.org/2000/svg">
<mask id="mask0_627_282" style="mask-type:luminance" maskUnits="userSpaceOnUse" x="0" y="0" width="516" height="336">
<path d="M515 1V334.114H1V1H515Z" fill="white" stroke="white" stroke-width="2"/>
</mask>
<g mask="url(#mask0_627_282)">
<path d="M363.272 176.728C395.686 175.829 424.874 187.547 441.258 207.819V207.82C453.554 223.1 457.82 242.243 453.059 261.81C450.584 271.908 444.237 280.418 435.654 285.307L434.816 285.768C429.321 288.613 423.436 290.089 416.849 290.089C405.705 290.089 392.88 285.94 378.047 277.511L378.035 277.505L377.812 277.374C375.563 275.977 374.796 272.977 376.11 270.599L376.111 270.597C377.444 268.173 380.555 267.315 383.012 268.668V268.667C403.019 279.992 418.55 282.846 430.113 276.744L430.116 276.742C436.625 273.273 441.437 266.981 443.214 259.347L443.213 259.346C447.212 242.724 443.821 227.077 433.344 214.126C418.789 196.069 392.653 185.916 363.415 186.729H39.8074V186.732C37.507 186.264 35.7605 184.216 35.7605 181.781C35.7606 179.004 38.0327 176.729 40.8074 176.729H363.259L363.272 176.728Z" fill="white" stroke="black" stroke-width="2"/>
<path d="M428.106 14.9739C440.98 12.6961 454.781 14.7687 467.924 20.7484C489.12 30.4079 505.14 48.9318 511.711 71.6429L511.712 71.6448C518.277 94.1045 514.907 118.195 502.461 137.753L501.861 138.681C493.007 152.116 479.958 163.1 462.958 171.504L461.562 172.195L462.771 173.177C480.031 187.214 491.503 207.336 494.806 229.94L494.957 231.019C498.445 257.063 490.667 282.67 473.549 301.095L473.546 301.099C458.331 317.619 436.641 326.489 414.229 326.49C405.365 326.49 396.304 325.094 387.537 322.201H387.538C365.116 314.791 346.83 303.183 332.957 287.499L331.761 286.146L331.249 287.878C329.161 294.951 326.084 301.793 321.335 308.03L321.333 308.032C308.296 325.23 286.088 334.052 254.823 334.052C248.71 334.052 242.197 333.752 235.379 333.047L235.366 333.046L235.111 333.016C232.491 332.639 230.583 330.19 230.829 327.481C231.079 324.725 233.598 322.684 236.394 322.938C273.668 326.675 299.73 319.753 313.254 301.981L313.256 301.978C324.734 286.78 325.375 266.099 323.213 249.34C321.317 234.641 317.238 222.76 316.167 219.818L315.907 219.121C314.902 216.501 316.174 213.565 318.767 212.563L318.769 212.562C321.382 211.545 324.323 212.818 325.333 215.419C325.979 217.141 336.425 244.322 334.035 272.347L334.003 272.717L334.221 273.018C347.459 291.362 366.489 304.685 390.642 312.607V312.606C417.468 321.455 446.607 314.574 465.271 295.119L466.151 294.184C480.943 278.176 487.792 256.139 485.081 233.45L484.944 232.368L484.789 231.256C481.37 207.939 468.211 187.655 448.61 175.484C447.014 174.471 446.094 172.612 446.262 170.779V170.773C446.425 168.86 447.671 167.246 449.477 166.47C469.558 158.446 483.95 147.549 493.358 133.119L493.359 133.118C504.426 116.102 507.67 95.0227 502.211 75.348L501.944 74.4124C496.313 54.8841 482.654 38.8196 464.574 30.3167L463.71 29.9173C451.5 24.3452 439.292 22.8429 427.885 25.3138C416.478 27.7847 405.942 34.2136 397.051 44.387C388.869 53.7063 383.054 65.6624 380.101 79.2191V79.22C375.217 101.661 363.272 119.176 344.861 131.13L344.86 131.131C325.432 143.796 298.037 150.729 263.085 151.838H262.8L5.95605 148.51H5.94238C3.18762 148.51 0.91256 146.158 0.999023 143.391L1 143.389C1.08369 140.582 3.3752 138.33 6.11621 138.411H6.13281L262.872 141.74H262.918C294.291 140.729 318.842 134.989 336.704 124.266C354.605 113.519 365.725 97.8031 370.264 77.0208V77.0198C373.559 61.8476 380.238 48.2917 389.486 37.7376L389.487 37.7366C400.544 25.0843 413.544 17.4532 428.1 14.9759L428.106 14.9739Z" fill="white" stroke="black" stroke-width="2"/>
<path d="M79.5 212.125H255.427C281.374 212.125 302.489 233.255 302.489 259.224C302.489 283.68 282.684 303.599 258.25 303.599C233.813 303.599 213.906 283.677 213.906 259.224C213.906 256.447 216.179 254.172 218.953 254.172C221.723 254.172 224 256.447 224 259.224C224 278.124 239.358 293.5 258.25 293.5C277.142 293.5 292.5 278.124 292.5 259.224C292.5 238.808 275.933 222.224 255.531 222.224H79.5C76.7253 222.224 74.4531 219.949 74.4531 217.172C74.4531 214.401 76.7247 212.125 79.5 212.125Z" fill="white" stroke="black" stroke-width="2"/>
<mask id="mask1_627_282" style="mask-type:luminance" maskUnits="userSpaceOnUse" x="176" y="0" width="158" height="119">
<path d="M332.838 1.11456V118H177.505V1.11456H332.838Z" fill="white" stroke="white" stroke-width="2"/>
</mask>
<g mask="url(#mask1_627_282)">
<path d="M270.299 7.95502C282.583 -0.298484 297.801 -0.9892 311.086 5.99896C324.458 13.0848 332.719 26.9615 332.719 42.0204V43.0312C332.719 65.3702 314.525 83.5732 292.208 83.5732H281.828C247.557 83.5732 213.99 95.2402 187.517 116.347L186.833 116.839L186.808 116.857L186.784 116.877C185.877 117.618 184.796 117.958 183.583 117.958H183.524L183.465 117.966C182.163 118.121 180.768 117.513 179.728 116.218L179.727 116.217L179.567 116.007C177.975 113.814 178.378 110.776 180.47 109.162L180.491 109.145L180.511 109.128L181.208 108.528C209.541 85.9949 245.287 73.5732 281.828 73.5732H292.208C308.98 73.5732 322.63 59.9159 322.63 43.1298V42.1201C322.63 30.661 316.478 20.438 306.28 15.0253H306.281C296.382 9.70482 285.008 10.3277 275.935 16.3818L275.927 16.3867L275.919 16.3925C274.767 17.1927 273.633 18.0287 272.704 18.9609L272.34 19.3447C270.422 21.3492 267.227 21.3716 265.186 19.4179C263.187 17.4995 263.165 14.3 265.118 12.2587L265.126 12.2509C266.564 10.7138 268.307 9.35021 270.299 7.95502Z" fill="white" stroke="black" stroke-width="2"/>
</g>
<path d="M417.218 49.6392C437.445 44.1848 457.689 49.755 470.205 63.9537V63.9547C481.145 76.4841 484.092 93.6279 477.791 108.692L477.79 108.696C471.631 123.577 451.084 149.631 383.266 153.755H382.89C380.283 153.755 378.148 151.778 377.863 149.287L377.842 149.044C377.678 146.253 379.791 143.823 382.55 143.654C405.149 142.339 424.271 138.188 438.911 131.607C453.546 125.028 463.789 115.978 468.454 104.824C473.341 93.1683 471.146 80.365 462.644 70.6089L462.643 70.607C452.478 58.9782 436.542 54.8885 419.91 59.4097L419.901 59.4127C417.306 60.1421 414.616 58.6727 413.759 56.1207L413.681 55.8697C412.928 53.183 414.515 50.3992 417.218 49.6392Z" fill="white" stroke="black" stroke-width="2"/>
</g>
</svg>
