<svg width="434" height="434" viewBox="0 0 434 434" fill="none" xmlns="http://www.w3.org/2000/svg">
<mask id="mask0_627_276" style="mask-type:luminance" maskUnits="userSpaceOnUse" x="-1" y="0" width="435" height="434">
<path d="M0.989258 1H432.989V433H0.989258V1Z" fill="white" stroke="white" stroke-width="2"/>
</mask>
<g mask="url(#mask0_627_276)">
<path fill-rule="evenodd" clip-rule="evenodd" d="M431.38 299.703L201.286 432.568C200.786 432.854 200.25 432.995 199.672 432.99C199.099 432.984 198.562 432.839 198.068 432.547L2.60398 319.688C2.23419 319.479 1.92168 319.208 1.66127 318.87C1.40085 318.536 1.21856 318.167 1.10919 317.755C0.999811 317.349 0.973768 316.932 1.02585 316.516C1.08314 316.094 1.21856 315.703 1.4321 315.339C1.72898 314.844 2.12481 314.453 2.62481 314.172L81.854 268.427C68.4842 248.979 60.1352 226.51 60.1352 199.536V137.698C60.1561 133.568 66.4738 133.479 66.5154 137.698V199.536C66.604 283.089 151.953 322.219 213.401 364.547C274.849 322.219 360.198 283.089 360.286 199.536V46.8333L213.401 7.48958L66.5154 46.8333V110.771C66.4738 114.964 60.1769 114.943 60.1352 110.771V44.3906C60.1352 44.0417 60.1873 43.6979 60.3019 43.3646C60.4113 43.0313 60.5779 42.7292 60.7915 42.4531C60.9998 42.1719 61.255 41.9375 61.5467 41.7448C61.8384 41.5469 62.1561 41.4063 62.4946 41.3177L212.578 1.10938C213.125 0.953125 213.677 0.953125 214.224 1.10938L364.135 41.276C364.495 41.349 364.828 41.4844 365.14 41.6719C365.453 41.8646 365.724 42.099 365.953 42.3854C366.182 42.6667 366.359 42.9792 366.484 43.3229C366.604 43.6719 366.666 44.026 366.666 44.3906V199.536C366.666 273.38 304.224 313.411 247.229 349.969C236.239 357.021 225.469 363.917 215.281 371.01C214.734 371.406 214.12 371.609 213.437 371.62C212.76 371.625 212.146 371.438 211.583 371.057C201.375 363.938 190.562 357.021 179.573 349.969C145.291 327.969 109.041 304.719 85.5936 273.615L10.5623 316.938L199.687 426.125L423.443 296.932L373.239 267.948C369.609 265.849 372.875 260.38 376.443 262.432L431.401 294.188C433.5 295.333 433.5 298.578 431.38 299.703ZM219.437 177.063L319.255 77.2448L213.401 48.8906L104.583 78.0469V191.38C104.625 253.089 167.828 282.292 213.401 313.589C258.953 282.292 322.172 253.089 322.219 191.38V165.057C322.26 160.885 328.552 160.885 328.599 165.057V191.38C328.448 257.63 262.911 286.984 215.219 320.078C214.661 320.464 214.041 320.656 213.359 320.646C212.682 320.641 212.068 320.432 211.521 320.031C203.906 314.755 195.88 309.609 187.703 304.349C144.989 276.969 98.1821 246.948 98.1821 191.38V75.599C98.1821 75.2344 98.2498 74.8802 98.3696 74.5365C98.4946 74.1875 98.6769 73.875 98.9061 73.5938C99.1404 73.3073 99.4113 73.0729 99.7238 72.8802C100.041 72.6927 100.375 72.5625 100.734 72.4844L212.578 42.5104C213.125 42.3646 213.677 42.3646 214.224 42.5104L326.239 72.5313L326.39 72.6146C326.604 72.6875 326.807 72.7813 326.995 72.8958C327.177 72.9948 327.344 73.1094 327.495 73.2448L327.666 73.349L357.797 103.458C358.094 103.76 358.323 104.109 358.484 104.5C358.64 104.891 358.724 105.297 358.724 105.719C358.724 106.141 358.64 106.547 358.484 106.943C358.323 107.333 358.094 107.677 357.797 107.979L221.708 244.073C221.406 244.375 221.062 244.604 220.672 244.771C220.281 244.932 219.87 245.016 219.448 245.016C219.021 245.016 218.614 244.932 218.224 244.771C217.828 244.604 217.484 244.375 217.187 244.073L130.974 157.854C130.672 157.557 130.437 157.214 130.276 156.823C130.109 156.427 130.026 156.021 130.026 155.599C130.026 155.172 130.109 154.766 130.276 154.37C130.437 153.979 130.672 153.635 130.974 153.339L161.078 123.229C161.38 122.927 161.724 122.693 162.114 122.531C162.505 122.365 162.916 122.286 163.338 122.286C163.765 122.286 164.172 122.365 164.562 122.531C164.958 122.693 165.302 122.927 165.599 123.229L219.437 177.063ZM221.708 183.833C221.406 184.135 221.062 184.37 220.672 184.531C220.281 184.693 219.87 184.776 219.448 184.776C219.021 184.776 218.614 184.693 218.224 184.531C217.828 184.37 217.484 184.135 217.187 183.833L163.349 130L137.739 155.609L219.437 237.302L351.005 105.729L325.416 80.1198L221.708 183.833Z" fill="white" stroke="white" stroke-width="2"/>
</g>
</svg>
