<svg xmlns="http://www.w3.org/2000/svg" xmlns:xlink="http://www.w3.org/1999/xlink" width="2000" zoomAndPan="magnify" viewBox="0 0 1500 1499.999933" height="2000" preserveAspectRatio="xMidYMid meet" version="1.0"><defs><clipPath id="be9e8b4357"><path d="M 63 61.140625 L 1437 61.140625 L 1437 1438.890625 L 63 1438.890625 Z M 63 61.140625 " clip-rule="nonzero"/></clipPath><clipPath id="2f6c9e0b64"><path d="M 1000.6875 237.429688 C 873.992188 226.867188 749.953125 188.214844 639.25 125.75 L 639.25 375.203125 L 594.949219 375.203125 L 594.949219 125.75 C 484.246094 188.214844 360.207031 226.886719 233.511719 237.453125 L 193.109375 240.796875 L 115.363281 707.269531 C 110.246094 737.992188 107.65625 769.378906 107.65625 800.542969 C 107.65625 1008.265625 220.929688 1199.085938 403.308594 1298.558594 L 544.515625 1375.597656 C 560.175781 1384.144531 577.339844 1389.503906 594.949219 1392.007812 L 594.949219 1216.894531 L 639.25 1216.894531 L 639.25 1392.007812 C 656.835938 1389.507812 674.023438 1384.125 689.683594 1375.597656 L 830.890625 1298.558594 C 896.007812 1263.03125 952.710938 1215.875 999.425781 1158.375 L 1033.804688 1186.328125 C 983.457031 1248.300781 922.300781 1299.136719 852.109375 1337.453125 L 710.902344 1414.492188 C 682.21875 1430.128906 649.792969 1438.414062 617.101562 1438.414062 C 584.40625 1438.414062 551.980469 1430.128906 523.296875 1414.492188 L 382.089844 1337.453125 C 185.488281 1230.203125 63.355469 1024.476562 63.355469 800.542969 C 63.355469 766.941406 66.148438 733.121094 71.683594 699.984375 L 155.101562 199.511719 L 229.832031 193.285156 C 362.554688 182.210938 492.417969 139.0625 605.382812 68.472656 L 617.101562 61.140625 L 628.839844 68.472656 C 741.804688 139.0625 871.644531 182.234375 1004.386719 193.285156 L 1079.121094 199.511719 L 1093.03125 282.96875 L 1049.328125 290.257812 L 1041.089844 240.820312 Z M 1392.339844 530.25 L 1436.640625 530.25 L 1436.640625 596.699219 C 1436.640625 633.335938 1406.828125 663.148438 1370.191406 663.148438 L 1323.65625 663.148438 C 1325.117188 670.304688 1325.890625 677.722656 1325.890625 685.296875 C 1325.890625 692.875 1325.117188 700.292969 1323.65625 707.449219 L 1436.640625 707.449219 L 1436.640625 751.75 L 1303.167969 751.75 C 1295.015625 762.511719 1285.113281 771.75 1273.640625 778.949219 L 1289.632812 794.941406 C 1289.988281 795.292969 1290.296875 795.691406 1290.652344 796.046875 L 1370.191406 796.046875 C 1406.828125 796.046875 1436.640625 825.859375 1436.640625 862.496094 L 1436.640625 928.945312 L 1392.339844 928.945312 L 1392.339844 862.496094 C 1392.339844 850.292969 1382.394531 840.347656 1370.191406 840.347656 L 1323.65625 840.347656 C 1339.535156 869.320312 1348.042969 901.945312 1348.042969 935.921875 L 1348.042969 951.117188 C 1348.042969 1061.023438 1258.601562 1150.464844 1148.695312 1150.464844 C 1038.785156 1150.464844 949.347656 1061.023438 949.347656 951.117188 L 949.347656 935.902344 C 949.347656 901.96875 957.851562 869.339844 973.710938 840.371094 L 927.195312 840.371094 C 914.992188 840.371094 905.046875 850.316406 905.046875 862.519531 L 905.046875 928.96875 L 860.746094 928.96875 L 860.746094 862.519531 C 860.746094 825.882812 890.5625 796.070312 927.195312 796.070312 L 1006.691406 796.070312 C 1007.046875 795.714844 1007.335938 795.316406 1007.710938 794.960938 L 1023.726562 778.949219 C 1012.273438 771.75 1002.351562 762.511719 994.222656 751.769531 L 860.746094 751.769531 L 860.746094 707.472656 L 973.734375 707.472656 C 972.269531 700.316406 971.496094 692.894531 971.496094 685.320312 C 971.496094 677.746094 972.269531 670.324219 973.734375 663.171875 L 927.195312 663.171875 C 890.5625 663.171875 860.746094 633.359375 860.746094 596.722656 L 860.746094 530.273438 L 905.046875 530.273438 L 905.046875 596.722656 C 905.046875 608.925781 914.992188 618.871094 927.195312 618.871094 L 994.222656 618.871094 C 1005.605469 603.832031 1020.492188 591.628906 1037.945312 583.964844 L 1037.945312 552.421875 C 1037.945312 545.222656 1038.742188 538.222656 1040.070312 531.402344 C 1012.007812 516.539062 993.644531 487.632812 993.644531 454.5 C 993.644531 425.148438 1008.21875 397.929688 1032.628906 381.648438 L 1104.394531 333.804688 L 1104.394531 375.179688 C 1104.394531 399.789062 1111.613281 423.597656 1125.238281 444.042969 L 1125.347656 444.199219 C 1132.878906 442.582031 1140.675781 441.605469 1148.695312 441.605469 C 1156.710938 441.605469 1164.488281 442.558594 1172.039062 444.199219 L 1172.152344 444.042969 C 1185.773438 423.621094 1192.992188 399.8125 1192.992188 375.203125 L 1192.992188 333.828125 L 1264.757812 381.671875 C 1289.167969 397.929688 1303.742188 425.171875 1303.742188 454.519531 C 1303.742188 487.65625 1285.378906 516.5625 1257.316406 531.402344 C 1258.644531 538.203125 1259.441406 545.203125 1259.441406 552.398438 L 1259.441406 583.941406 C 1276.917969 591.605469 1291.804688 603.808594 1303.167969 618.847656 L 1370.191406 618.847656 C 1382.394531 618.847656 1392.339844 608.90625 1392.339844 596.699219 Z M 1212.773438 462.40625 C 1223.472656 470.046875 1232.886719 479.371094 1240.28125 490.246094 C 1252 482.453125 1259.441406 469.316406 1259.441406 454.5 C 1259.441406 440.011719 1252.242188 426.546875 1240.195312 418.503906 L 1232.863281 413.632812 C 1228.855469 430.796875 1222.007812 447.1875 1212.773438 462.40625 Z M 1057.105469 490.246094 C 1064.503906 479.371094 1073.917969 470.046875 1084.613281 462.40625 C 1075.378906 447.1875 1068.511719 430.796875 1064.523438 413.632812 L 1057.191406 418.503906 C 1045.144531 426.566406 1037.945312 440.011719 1037.945312 454.5 C 1037.945312 469.316406 1045.386719 482.453125 1057.105469 490.246094 Z M 1082.246094 574.550781 L 1215.144531 574.550781 L 1215.144531 552.398438 C 1215.144531 515.765625 1185.328125 485.949219 1148.695312 485.949219 C 1112.058594 485.949219 1082.246094 515.765625 1082.246094 552.398438 Z M 1288.570312 1017.546875 C 1295.148438 1003.769531 1299.710938 988.882812 1301.96875 973.246094 L 995.417969 973.246094 C 997.675781 988.882812 1002.238281 1003.769531 1008.816406 1017.546875 Z M 1294.90625 884.648438 L 1002.460938 884.648438 C 997.523438 898.777344 994.664062 913.640625 993.976562 928.945312 L 1303.386719 928.945312 C 1302.722656 913.640625 1299.867188 898.777344 1294.90625 884.648438 Z M 1148.695312 1106.144531 C 1190.824219 1106.144531 1229.03125 1089.199219 1257.007812 1061.84375 L 1040.382812 1061.84375 C 1068.355469 1089.199219 1106.566406 1106.144531 1148.695312 1106.144531 Z M 1226.90625 794.851562 C 1222.984375 795.273438 1219.175781 796.046875 1215.144531 796.046875 L 1082.246094 796.046875 C 1078.214844 796.046875 1074.359375 795.273438 1070.4375 794.851562 L 1039.03125 826.261719 C 1034.578125 830.710938 1030.523438 835.472656 1026.691406 840.347656 L 1270.652344 840.347656 C 1266.820312 835.472656 1262.765625 830.710938 1258.3125 826.261719 Z M 1281.59375 685.296875 C 1281.59375 648.664062 1251.777344 618.847656 1215.144531 618.847656 L 1082.246094 618.847656 C 1045.609375 618.847656 1015.796875 648.664062 1015.796875 685.296875 C 1015.796875 721.933594 1045.609375 751.75 1082.246094 751.75 L 1215.144531 751.75 C 1251.777344 751.75 1281.59375 721.933594 1281.59375 685.296875 Z M 772.148438 1150.445312 C 772.148438 1113.808594 801.960938 1083.996094 838.597656 1083.996094 C 875.234375 1083.996094 905.046875 1113.808594 905.046875 1150.445312 C 905.046875 1187.078125 875.234375 1216.894531 838.597656 1216.894531 C 801.960938 1216.894531 772.148438 1187.078125 772.148438 1150.445312 Z M 816.449219 1150.445312 C 816.449219 1162.648438 826.394531 1172.59375 838.597656 1172.59375 C 850.800781 1172.59375 860.746094 1162.648438 860.746094 1150.445312 C 860.746094 1138.238281 850.800781 1128.292969 838.597656 1128.292969 C 826.394531 1128.292969 816.449219 1138.238281 816.449219 1150.445312 Z M 284.851562 906.796875 L 750 906.796875 C 786.632812 906.796875 816.449219 876.984375 816.449219 840.347656 C 816.449219 803.710938 786.632812 773.898438 750 773.898438 L 439.902344 773.898438 C 427.695312 773.898438 417.753906 763.953125 417.753906 751.75 C 417.753906 739.542969 427.695312 729.597656 439.902344 729.597656 L 639.25 729.597656 C 675.886719 729.597656 705.699219 699.785156 705.699219 663.148438 C 705.699219 626.511719 675.886719 596.699219 639.25 596.699219 L 307.003906 596.699219 C 294.796875 596.699219 284.851562 586.753906 284.851562 574.550781 C 284.851562 562.34375 294.796875 552.398438 307.003906 552.398438 L 705.699219 552.398438 C 742.335938 552.398438 772.148438 522.585938 772.148438 485.949219 C 772.148438 449.316406 742.335938 419.5 705.699219 419.5 L 484.203125 419.5 L 484.203125 463.800781 L 705.699219 463.800781 C 717.902344 463.800781 727.847656 473.746094 727.847656 485.949219 C 727.847656 498.15625 717.902344 508.101562 705.699219 508.101562 L 307.003906 508.101562 C 270.367188 508.101562 240.554688 537.914062 240.554688 574.550781 C 240.554688 611.1875 270.367188 641 307.003906 641 L 639.25 641 C 651.453125 641 661.398438 650.945312 661.398438 663.148438 C 661.398438 675.355469 651.453125 685.296875 639.25 685.296875 L 439.902344 685.296875 C 403.265625 685.296875 373.453125 715.113281 373.453125 751.75 C 373.453125 788.382812 403.265625 818.199219 439.902344 818.199219 L 750 818.199219 C 762.203125 818.199219 772.148438 828.144531 772.148438 840.347656 C 772.148438 852.550781 762.203125 862.496094 750 862.496094 L 284.851562 862.496094 C 248.21875 862.496094 218.402344 892.308594 218.402344 928.945312 C 218.402344 965.582031 248.21875 995.394531 284.851562 995.394531 L 594.949219 995.394531 C 607.15625 995.394531 617.101562 1005.339844 617.101562 1017.546875 C 617.101562 1029.75 607.15625 1039.695312 594.949219 1039.695312 L 395.601562 1039.695312 C 358.964844 1039.695312 329.152344 1069.507812 329.152344 1106.144531 C 329.152344 1142.78125 358.964844 1172.59375 395.601562 1172.59375 L 727.847656 1172.59375 L 727.847656 1128.292969 L 395.601562 1128.292969 C 383.398438 1128.292969 373.453125 1118.347656 373.453125 1106.144531 C 373.453125 1093.941406 383.398438 1083.996094 395.601562 1083.996094 L 594.949219 1083.996094 C 631.585938 1083.996094 661.398438 1054.179688 661.398438 1017.546875 C 661.398438 980.910156 631.585938 951.097656 594.949219 951.097656 L 284.851562 951.097656 C 272.648438 951.097656 262.703125 941.152344 262.703125 928.945312 C 262.703125 916.742188 272.648438 906.796875 284.851562 906.796875 Z M 284.851562 906.796875 " clip-rule="nonzero"/></clipPath><linearGradient x1="31" gradientTransform="matrix(22.149754, 0, 0, 22.149754, 63.355908, 61.140847)" y1="62.18" x2="31" gradientUnits="userSpaceOnUse" y2="0.000000805989" id="70bdb33bd8"><stop stop-opacity="1" stop-color="rgb(49.409485%, 85.099792%, 34.118652%)" offset="0"/><stop stop-opacity="1" stop-color="rgb(49.215698%, 84.767151%, 33.985901%)" offset="0.00390625"/><stop stop-opacity="1" stop-color="rgb(49.023438%, 84.436035%, 33.853149%)" offset="0.0078125"/><stop stop-opacity="1" stop-color="rgb(48.829651%, 84.103394%, 33.718872%)" offset="0.0117188"/><stop stop-opacity="1" stop-color="rgb(48.63739%, 83.770752%, 33.586121%)" offset="0.015625"/><stop stop-opacity="1" stop-color="rgb(48.443604%, 83.43811%, 33.453369%)" offset="0.0195312"/><stop stop-opacity="1" stop-color="rgb(48.251343%, 83.105469%, 33.320618%)" offset="0.0234375"/><stop stop-opacity="1" stop-color="rgb(48.057556%, 82.772827%, 33.18634%)" offset="0.0273437"/><stop stop-opacity="1" stop-color="rgb(47.865295%, 82.441711%, 33.053589%)" offset="0.03125"/><stop stop-opacity="1" stop-color="rgb(47.671509%, 82.10907%, 32.919312%)" offset="0.0351562"/><stop stop-opacity="1" stop-color="rgb(47.479248%, 81.776428%, 32.78656%)" offset="0.0390625"/><stop stop-opacity="1" stop-color="rgb(47.285461%, 81.443787%, 32.653809%)" offset="0.0429687"/><stop stop-opacity="1" stop-color="rgb(47.093201%, 81.111145%, 32.521057%)" offset="0.046875"/><stop stop-opacity="1" stop-color="rgb(46.899414%, 80.778503%, 32.38678%)" offset="0.0507812"/><stop stop-opacity="1" stop-color="rgb(46.707153%, 80.445862%, 32.254028%)" offset="0.0546875"/><stop stop-opacity="1" stop-color="rgb(46.513367%, 80.11322%, 32.119751%)" offset="0.0585937"/><stop stop-opacity="1" stop-color="rgb(46.321106%, 79.782104%, 31.987%)" offset="0.0625"/><stop stop-opacity="1" stop-color="rgb(46.128845%, 79.449463%, 31.852722%)" offset="0.0664062"/><stop stop-opacity="1" stop-color="rgb(45.936584%, 79.116821%, 31.719971%)" offset="0.0703125"/><stop stop-opacity="1" stop-color="rgb(45.742798%, 78.78418%, 31.587219%)" offset="0.0742188"/><stop stop-opacity="1" stop-color="rgb(45.550537%, 78.451538%, 31.454468%)" offset="0.078125"/><stop stop-opacity="1" stop-color="rgb(45.35675%, 78.118896%, 31.32019%)" offset="0.0820312"/><stop stop-opacity="1" stop-color="rgb(45.16449%, 77.787781%, 31.187439%)" offset="0.0859375"/><stop stop-opacity="1" stop-color="rgb(44.970703%, 77.455139%, 31.053162%)" offset="0.0898438"/><stop stop-opacity="1" stop-color="rgb(44.778442%, 77.122498%, 30.92041%)" offset="0.09375"/><stop stop-opacity="1" stop-color="rgb(44.584656%, 76.789856%, 30.787659%)" offset="0.0976562"/><stop stop-opacity="1" stop-color="rgb(44.392395%, 76.457214%, 30.654907%)" offset="0.101562"/><stop stop-opacity="1" stop-color="rgb(44.198608%, 76.124573%, 30.52063%)" offset="0.105469"/><stop stop-opacity="1" stop-color="rgb(44.006348%, 75.791931%, 30.387878%)" offset="0.109375"/><stop stop-opacity="1" stop-color="rgb(43.812561%, 75.45929%, 30.253601%)" offset="0.113281"/><stop stop-opacity="1" stop-color="rgb(43.6203%, 75.128174%, 30.12085%)" offset="0.117187"/><stop stop-opacity="1" stop-color="rgb(43.426514%, 74.795532%, 29.988098%)" offset="0.121094"/><stop stop-opacity="1" stop-color="rgb(43.234253%, 74.462891%, 29.855347%)" offset="0.125"/><stop stop-opacity="1" stop-color="rgb(43.040466%, 74.130249%, 29.721069%)" offset="0.128906"/><stop stop-opacity="1" stop-color="rgb(42.848206%, 73.797607%, 29.588318%)" offset="0.132812"/><stop stop-opacity="1" stop-color="rgb(42.654419%, 73.464966%, 29.454041%)" offset="0.136719"/><stop stop-opacity="1" stop-color="rgb(42.462158%, 73.13385%, 29.321289%)" offset="0.140625"/><stop stop-opacity="1" stop-color="rgb(42.268372%, 72.801208%, 29.187012%)" offset="0.144531"/><stop stop-opacity="1" stop-color="rgb(42.076111%, 72.468567%, 29.05426%)" offset="0.148437"/><stop stop-opacity="1" stop-color="rgb(41.882324%, 72.135925%, 28.921509%)" offset="0.152344"/><stop stop-opacity="1" stop-color="rgb(41.690063%, 71.803284%, 28.788757%)" offset="0.15625"/><stop stop-opacity="1" stop-color="rgb(41.496277%, 71.470642%, 28.65448%)" offset="0.160156"/><stop stop-opacity="1" stop-color="rgb(41.304016%, 71.138%, 28.521729%)" offset="0.164062"/><stop stop-opacity="1" stop-color="rgb(41.110229%, 70.805359%, 28.387451%)" offset="0.167969"/><stop stop-opacity="1" stop-color="rgb(40.917969%, 70.474243%, 28.2547%)" offset="0.171875"/><stop stop-opacity="1" stop-color="rgb(40.724182%, 70.141602%, 28.121948%)" offset="0.175781"/><stop stop-opacity="1" stop-color="rgb(40.531921%, 69.80896%, 27.989197%)" offset="0.179688"/><stop stop-opacity="1" stop-color="rgb(40.338135%, 69.476318%, 27.854919%)" offset="0.183594"/><stop stop-opacity="1" stop-color="rgb(40.145874%, 69.143677%, 27.722168%)" offset="0.1875"/><stop stop-opacity="1" stop-color="rgb(39.952087%, 68.811035%, 27.587891%)" offset="0.191406"/><stop stop-opacity="1" stop-color="rgb(39.759827%, 68.479919%, 27.455139%)" offset="0.195312"/><stop stop-opacity="1" stop-color="rgb(39.56604%, 68.147278%, 27.322388%)" offset="0.199219"/><stop stop-opacity="1" stop-color="rgb(39.373779%, 67.814636%, 27.189636%)" offset="0.203125"/><stop stop-opacity="1" stop-color="rgb(39.179993%, 67.481995%, 27.055359%)" offset="0.207031"/><stop stop-opacity="1" stop-color="rgb(38.987732%, 67.149353%, 26.922607%)" offset="0.210938"/><stop stop-opacity="1" stop-color="rgb(38.793945%, 66.816711%, 26.78833%)" offset="0.214844"/><stop stop-opacity="1" stop-color="rgb(38.601685%, 66.48407%, 26.655579%)" offset="0.21875"/><stop stop-opacity="1" stop-color="rgb(38.407898%, 66.151428%, 26.522827%)" offset="0.222656"/><stop stop-opacity="1" stop-color="rgb(38.215637%, 65.820312%, 26.390076%)" offset="0.226563"/><stop stop-opacity="1" stop-color="rgb(38.021851%, 65.487671%, 26.255798%)" offset="0.230469"/><stop stop-opacity="1" stop-color="rgb(37.82959%, 65.155029%, 26.123047%)" offset="0.234375"/><stop stop-opacity="1" stop-color="rgb(37.635803%, 64.822388%, 25.98877%)" offset="0.238281"/><stop stop-opacity="1" stop-color="rgb(37.443542%, 64.489746%, 25.856018%)" offset="0.242188"/><stop stop-opacity="1" stop-color="rgb(37.249756%, 64.157104%, 25.721741%)" offset="0.246094"/><stop stop-opacity="1" stop-color="rgb(37.057495%, 63.825989%, 25.588989%)" offset="0.25"/><stop stop-opacity="1" stop-color="rgb(36.863708%, 63.493347%, 25.456238%)" offset="0.253906"/><stop stop-opacity="1" stop-color="rgb(36.671448%, 63.160706%, 25.323486%)" offset="0.257812"/><stop stop-opacity="1" stop-color="rgb(36.477661%, 62.828064%, 25.189209%)" offset="0.261719"/><stop stop-opacity="1" stop-color="rgb(36.2854%, 62.495422%, 25.056458%)" offset="0.265625"/><stop stop-opacity="1" stop-color="rgb(36.091614%, 62.162781%, 24.92218%)" offset="0.269531"/><stop stop-opacity="1" stop-color="rgb(35.899353%, 61.830139%, 24.789429%)" offset="0.273438"/><stop stop-opacity="1" stop-color="rgb(35.705566%, 61.497498%, 24.656677%)" offset="0.277344"/><stop stop-opacity="1" stop-color="rgb(35.513306%, 61.166382%, 24.523926%)" offset="0.28125"/><stop stop-opacity="1" stop-color="rgb(35.319519%, 60.83374%, 24.389648%)" offset="0.285156"/><stop stop-opacity="1" stop-color="rgb(35.127258%, 60.501099%, 24.256897%)" offset="0.289062"/><stop stop-opacity="1" stop-color="rgb(34.933472%, 60.168457%, 24.12262%)" offset="0.292969"/><stop stop-opacity="1" stop-color="rgb(34.741211%, 59.835815%, 23.989868%)" offset="0.296875"/><stop stop-opacity="1" stop-color="rgb(34.547424%, 59.503174%, 23.857117%)" offset="0.300781"/><stop stop-opacity="1" stop-color="rgb(34.355164%, 59.170532%, 23.724365%)" offset="0.304687"/><stop stop-opacity="1" stop-color="rgb(34.161377%, 58.837891%, 23.590088%)" offset="0.308594"/><stop stop-opacity="1" stop-color="rgb(33.969116%, 58.506775%, 23.457336%)" offset="0.3125"/><stop stop-opacity="1" stop-color="rgb(33.77533%, 58.174133%, 23.323059%)" offset="0.316406"/><stop stop-opacity="1" stop-color="rgb(33.583069%, 57.841492%, 23.190308%)" offset="0.320312"/><stop stop-opacity="1" stop-color="rgb(33.389282%, 57.50885%, 23.05603%)" offset="0.324219"/><stop stop-opacity="1" stop-color="rgb(33.197021%, 57.176208%, 22.923279%)" offset="0.328125"/><stop stop-opacity="1" stop-color="rgb(33.003235%, 56.843567%, 22.790527%)" offset="0.332031"/><stop stop-opacity="1" stop-color="rgb(32.810974%, 56.512451%, 22.657776%)" offset="0.335938"/><stop stop-opacity="1" stop-color="rgb(32.617188%, 56.17981%, 22.523499%)" offset="0.339844"/><stop stop-opacity="1" stop-color="rgb(32.424927%, 55.847168%, 22.390747%)" offset="0.34375"/><stop stop-opacity="1" stop-color="rgb(32.23114%, 55.514526%, 22.25647%)" offset="0.347656"/><stop stop-opacity="1" stop-color="rgb(32.038879%, 55.181885%, 22.123718%)" offset="0.351562"/><stop stop-opacity="1" stop-color="rgb(31.845093%, 54.849243%, 21.990967%)" offset="0.355469"/><stop stop-opacity="1" stop-color="rgb(31.652832%, 54.516602%, 21.858215%)" offset="0.359375"/><stop stop-opacity="1" stop-color="rgb(31.459045%, 54.18396%, 21.723938%)" offset="0.363281"/><stop stop-opacity="1" stop-color="rgb(31.266785%, 53.852844%, 21.591187%)" offset="0.367188"/><stop stop-opacity="1" stop-color="rgb(31.072998%, 53.520203%, 21.456909%)" offset="0.371094"/><stop stop-opacity="1" stop-color="rgb(30.880737%, 53.187561%, 21.324158%)" offset="0.375"/><stop stop-opacity="1" stop-color="rgb(30.686951%, 52.854919%, 21.191406%)" offset="0.378906"/><stop stop-opacity="1" stop-color="rgb(30.49469%, 52.522278%, 21.058655%)" offset="0.382812"/><stop stop-opacity="1" stop-color="rgb(30.300903%, 52.189636%, 20.924377%)" offset="0.386719"/><stop stop-opacity="1" stop-color="rgb(30.108643%, 51.858521%, 20.791626%)" offset="0.390625"/><stop stop-opacity="1" stop-color="rgb(29.914856%, 51.525879%, 20.657349%)" offset="0.394531"/><stop stop-opacity="1" stop-color="rgb(29.722595%, 51.193237%, 20.524597%)" offset="0.398438"/><stop stop-opacity="1" stop-color="rgb(29.528809%, 50.860596%, 20.39032%)" offset="0.402344"/><stop stop-opacity="1" stop-color="rgb(29.336548%, 50.527954%, 20.257568%)" offset="0.40625"/><stop stop-opacity="1" stop-color="rgb(29.142761%, 50.195312%, 20.124817%)" offset="0.410156"/><stop stop-opacity="1" stop-color="rgb(28.9505%, 49.862671%, 19.992065%)" offset="0.414062"/><stop stop-opacity="1" stop-color="rgb(28.756714%, 49.530029%, 19.857788%)" offset="0.417969"/><stop stop-opacity="1" stop-color="rgb(28.564453%, 49.198914%, 19.725037%)" offset="0.421875"/><stop stop-opacity="1" stop-color="rgb(28.370667%, 48.866272%, 19.590759%)" offset="0.425781"/><stop stop-opacity="1" stop-color="rgb(28.178406%, 48.53363%, 19.458008%)" offset="0.429688"/><stop stop-opacity="1" stop-color="rgb(27.984619%, 48.200989%, 19.325256%)" offset="0.433594"/><stop stop-opacity="1" stop-color="rgb(27.792358%, 47.868347%, 19.192505%)" offset="0.4375"/><stop stop-opacity="1" stop-color="rgb(27.598572%, 47.535706%, 19.058228%)" offset="0.441406"/><stop stop-opacity="1" stop-color="rgb(27.406311%, 47.20459%, 18.925476%)" offset="0.445313"/><stop stop-opacity="1" stop-color="rgb(27.212524%, 46.871948%, 18.791199%)" offset="0.449219"/><stop stop-opacity="1" stop-color="rgb(27.020264%, 46.539307%, 18.658447%)" offset="0.453125"/><stop stop-opacity="1" stop-color="rgb(26.826477%, 46.206665%, 18.525696%)" offset="0.457031"/><stop stop-opacity="1" stop-color="rgb(26.634216%, 45.874023%, 18.392944%)" offset="0.460938"/><stop stop-opacity="1" stop-color="rgb(26.44043%, 45.541382%, 18.258667%)" offset="0.464844"/><stop stop-opacity="1" stop-color="rgb(26.248169%, 45.20874%, 18.125916%)" offset="0.46875"/><stop stop-opacity="1" stop-color="rgb(26.054382%, 44.876099%, 17.991638%)" offset="0.472656"/><stop stop-opacity="1" stop-color="rgb(25.862122%, 44.544983%, 17.858887%)" offset="0.476562"/><stop stop-opacity="1" stop-color="rgb(25.668335%, 44.212341%, 17.726135%)" offset="0.480469"/><stop stop-opacity="1" stop-color="rgb(25.476074%, 43.8797%, 17.593384%)" offset="0.484375"/><stop stop-opacity="1" stop-color="rgb(25.282288%, 43.547058%, 17.459106%)" offset="0.488281"/><stop stop-opacity="1" stop-color="rgb(25.090027%, 43.214417%, 17.326355%)" offset="0.492188"/><stop stop-opacity="1" stop-color="rgb(24.89624%, 42.881775%, 17.192078%)" offset="0.496094"/><stop stop-opacity="1" stop-color="rgb(24.703979%, 42.550659%, 17.059326%)" offset="0.5"/><stop stop-opacity="1" stop-color="rgb(24.510193%, 42.218018%, 16.925049%)" offset="0.503906"/><stop stop-opacity="1" stop-color="rgb(24.317932%, 41.885376%, 16.792297%)" offset="0.507812"/><stop stop-opacity="1" stop-color="rgb(24.124146%, 41.552734%, 16.659546%)" offset="0.511719"/><stop stop-opacity="1" stop-color="rgb(23.931885%, 41.220093%, 16.526794%)" offset="0.515625"/><stop stop-opacity="1" stop-color="rgb(23.738098%, 40.887451%, 16.392517%)" offset="0.519531"/><stop stop-opacity="1" stop-color="rgb(23.545837%, 40.55481%, 16.259766%)" offset="0.523438"/><stop stop-opacity="1" stop-color="rgb(23.352051%, 40.222168%, 16.125488%)" offset="0.527344"/><stop stop-opacity="1" stop-color="rgb(23.15979%, 39.891052%, 15.992737%)" offset="0.53125"/><stop stop-opacity="1" stop-color="rgb(22.967529%, 39.558411%, 15.859985%)" offset="0.535156"/><stop stop-opacity="1" stop-color="rgb(22.775269%, 39.225769%, 15.727234%)" offset="0.539062"/><stop stop-opacity="1" stop-color="rgb(22.581482%, 38.893127%, 15.592957%)" offset="0.542969"/><stop stop-opacity="1" stop-color="rgb(22.389221%, 38.560486%, 15.460205%)" offset="0.546875"/><stop stop-opacity="1" stop-color="rgb(22.195435%, 38.227844%, 15.325928%)" offset="0.550781"/><stop stop-opacity="1" stop-color="rgb(22.003174%, 37.895203%, 15.193176%)" offset="0.554687"/><stop stop-opacity="1" stop-color="rgb(21.809387%, 37.562561%, 15.060425%)" offset="0.558594"/><stop stop-opacity="1" stop-color="rgb(21.617126%, 37.231445%, 14.927673%)" offset="0.5625"/><stop stop-opacity="1" stop-color="rgb(21.42334%, 36.898804%, 14.793396%)" offset="0.566406"/><stop stop-opacity="1" stop-color="rgb(21.231079%, 36.566162%, 14.660645%)" offset="0.570312"/><stop stop-opacity="1" stop-color="rgb(21.037292%, 36.233521%, 14.526367%)" offset="0.574219"/><stop stop-opacity="1" stop-color="rgb(20.845032%, 35.900879%, 14.393616%)" offset="0.578125"/><stop stop-opacity="1" stop-color="rgb(20.651245%, 35.568237%, 14.259338%)" offset="0.582031"/><stop stop-opacity="1" stop-color="rgb(20.458984%, 35.237122%, 14.126587%)" offset="0.585938"/><stop stop-opacity="1" stop-color="rgb(20.265198%, 34.90448%, 13.993835%)" offset="0.589844"/><stop stop-opacity="1" stop-color="rgb(20.072937%, 34.571838%, 13.861084%)" offset="0.59375"/><stop stop-opacity="1" stop-color="rgb(19.87915%, 34.239197%, 13.726807%)" offset="0.597656"/><stop stop-opacity="1" stop-color="rgb(19.68689%, 33.906555%, 13.594055%)" offset="0.601562"/><stop stop-opacity="1" stop-color="rgb(19.493103%, 33.573914%, 13.459778%)" offset="0.605469"/><stop stop-opacity="1" stop-color="rgb(19.300842%, 33.241272%, 13.327026%)" offset="0.609375"/><stop stop-opacity="1" stop-color="rgb(19.107056%, 32.90863%, 13.194275%)" offset="0.613281"/><stop stop-opacity="1" stop-color="rgb(18.914795%, 32.577515%, 13.061523%)" offset="0.617188"/><stop stop-opacity="1" stop-color="rgb(18.721008%, 32.244873%, 12.927246%)" offset="0.621094"/><stop stop-opacity="1" stop-color="rgb(18.528748%, 31.912231%, 12.794495%)" offset="0.625"/><stop stop-opacity="1" stop-color="rgb(18.334961%, 31.57959%, 12.660217%)" offset="0.628906"/><stop stop-opacity="1" stop-color="rgb(18.1427%, 31.246948%, 12.527466%)" offset="0.632812"/><stop stop-opacity="1" stop-color="rgb(17.948914%, 30.914307%, 12.394714%)" offset="0.636719"/><stop stop-opacity="1" stop-color="rgb(17.756653%, 30.583191%, 12.261963%)" offset="0.640625"/><stop stop-opacity="1" stop-color="rgb(17.562866%, 30.250549%, 12.127686%)" offset="0.644531"/><stop stop-opacity="1" stop-color="rgb(17.370605%, 29.917908%, 11.994934%)" offset="0.648438"/><stop stop-opacity="1" stop-color="rgb(17.176819%, 29.585266%, 11.860657%)" offset="0.652344"/><stop stop-opacity="1" stop-color="rgb(16.984558%, 29.252625%, 11.727905%)" offset="0.65625"/><stop stop-opacity="1" stop-color="rgb(16.790771%, 28.919983%, 11.593628%)" offset="0.660156"/><stop stop-opacity="1" stop-color="rgb(16.598511%, 28.587341%, 11.460876%)" offset="0.664062"/><stop stop-opacity="1" stop-color="rgb(16.404724%, 28.2547%, 11.328125%)" offset="0.667969"/><stop stop-opacity="1" stop-color="rgb(16.212463%, 27.923584%, 11.195374%)" offset="0.671875"/><stop stop-opacity="1" stop-color="rgb(16.018677%, 27.590942%, 11.061096%)" offset="0.675781"/><stop stop-opacity="1" stop-color="rgb(15.826416%, 27.258301%, 10.928345%)" offset="0.679688"/><stop stop-opacity="1" stop-color="rgb(15.632629%, 26.925659%, 10.794067%)" offset="0.683594"/><stop stop-opacity="1" stop-color="rgb(15.440369%, 26.593018%, 10.661316%)" offset="0.6875"/><stop stop-opacity="1" stop-color="rgb(15.246582%, 26.260376%, 10.528564%)" offset="0.691406"/><stop stop-opacity="1" stop-color="rgb(15.054321%, 25.92926%, 10.395813%)" offset="0.695312"/><stop stop-opacity="1" stop-color="rgb(14.860535%, 25.596619%, 10.261536%)" offset="0.699219"/><stop stop-opacity="1" stop-color="rgb(14.668274%, 25.263977%, 10.128784%)" offset="0.703125"/><stop stop-opacity="1" stop-color="rgb(14.474487%, 24.931335%, 9.994507%)" offset="0.707031"/><stop stop-opacity="1" stop-color="rgb(14.282227%, 24.598694%, 9.861755%)" offset="0.710938"/><stop stop-opacity="1" stop-color="rgb(14.08844%, 24.266052%, 9.729004%)" offset="0.714844"/><stop stop-opacity="1" stop-color="rgb(13.896179%, 23.933411%, 9.596252%)" offset="0.71875"/><stop stop-opacity="1" stop-color="rgb(13.702393%, 23.600769%, 9.461975%)" offset="0.722656"/><stop stop-opacity="1" stop-color="rgb(13.510132%, 23.269653%, 9.329224%)" offset="0.726562"/><stop stop-opacity="1" stop-color="rgb(13.316345%, 22.937012%, 9.194946%)" offset="0.730469"/><stop stop-opacity="1" stop-color="rgb(13.124084%, 22.60437%, 9.062195%)" offset="0.734375"/><stop stop-opacity="1" stop-color="rgb(12.930298%, 22.271729%, 8.929443%)" offset="0.738281"/><stop stop-opacity="1" stop-color="rgb(12.738037%, 21.939087%, 8.796692%)" offset="0.742187"/><stop stop-opacity="1" stop-color="rgb(12.54425%, 21.606445%, 8.662415%)" offset="0.746094"/><stop stop-opacity="1" stop-color="rgb(12.35199%, 21.27533%, 8.529663%)" offset="0.75"/><stop stop-opacity="1" stop-color="rgb(12.158203%, 20.942688%, 8.395386%)" offset="0.753906"/><stop stop-opacity="1" stop-color="rgb(11.965942%, 20.610046%, 8.262634%)" offset="0.757813"/><stop stop-opacity="1" stop-color="rgb(11.772156%, 20.277405%, 8.128357%)" offset="0.761719"/><stop stop-opacity="1" stop-color="rgb(11.579895%, 19.944763%, 7.995605%)" offset="0.765625"/><stop stop-opacity="1" stop-color="rgb(11.386108%, 19.612122%, 7.862854%)" offset="0.769531"/><stop stop-opacity="1" stop-color="rgb(11.193848%, 19.27948%, 7.730103%)" offset="0.773438"/><stop stop-opacity="1" stop-color="rgb(11.000061%, 18.946838%, 7.595825%)" offset="0.777344"/><stop stop-opacity="1" stop-color="rgb(10.8078%, 18.615723%, 7.463074%)" offset="0.78125"/><stop stop-opacity="1" stop-color="rgb(10.614014%, 18.283081%, 7.328796%)" offset="0.785156"/><stop stop-opacity="1" stop-color="rgb(10.421753%, 17.950439%, 7.196045%)" offset="0.789062"/><stop stop-opacity="1" stop-color="rgb(10.227966%, 17.617798%, 7.063293%)" offset="0.792969"/><stop stop-opacity="1" stop-color="rgb(10.035706%, 17.285156%, 6.930542%)" offset="0.796875"/><stop stop-opacity="1" stop-color="rgb(9.841919%, 16.952515%, 6.796265%)" offset="0.800781"/><stop stop-opacity="1" stop-color="rgb(9.649658%, 16.619873%, 6.663513%)" offset="0.804688"/><stop stop-opacity="1" stop-color="rgb(9.455872%, 16.287231%, 6.529236%)" offset="0.808594"/><stop stop-opacity="1" stop-color="rgb(9.263611%, 15.956116%, 6.396484%)" offset="0.8125"/><stop stop-opacity="1" stop-color="rgb(9.069824%, 15.623474%, 6.263733%)" offset="0.816406"/><stop stop-opacity="1" stop-color="rgb(8.877563%, 15.290833%, 6.130981%)" offset="0.820312"/><stop stop-opacity="1" stop-color="rgb(8.683777%, 14.958191%, 5.996704%)" offset="0.824219"/><stop stop-opacity="1" stop-color="rgb(8.491516%, 14.625549%, 5.863953%)" offset="0.828125"/><stop stop-opacity="1" stop-color="rgb(8.297729%, 14.292908%, 5.729675%)" offset="0.832031"/><stop stop-opacity="1" stop-color="rgb(8.105469%, 13.961792%, 5.596924%)" offset="0.835938"/><stop stop-opacity="1" stop-color="rgb(7.911682%, 13.62915%, 5.462646%)" offset="0.839844"/><stop stop-opacity="1" stop-color="rgb(7.719421%, 13.296509%, 5.329895%)" offset="0.84375"/><stop stop-opacity="1" stop-color="rgb(7.525635%, 12.963867%, 5.197144%)" offset="0.847656"/><stop stop-opacity="1" stop-color="rgb(7.333374%, 12.631226%, 5.064392%)" offset="0.851562"/><stop stop-opacity="1" stop-color="rgb(7.139587%, 12.298584%, 4.930115%)" offset="0.855469"/><stop stop-opacity="1" stop-color="rgb(6.947327%, 11.965942%, 4.797363%)" offset="0.859375"/><stop stop-opacity="1" stop-color="rgb(6.75354%, 11.633301%, 4.663086%)" offset="0.863281"/><stop stop-opacity="1" stop-color="rgb(6.561279%, 11.302185%, 4.530334%)" offset="0.867188"/><stop stop-opacity="1" stop-color="rgb(6.367493%, 10.969543%, 4.397583%)" offset="0.871094"/><stop stop-opacity="1" stop-color="rgb(6.175232%, 10.636902%, 4.264832%)" offset="0.875"/><stop stop-opacity="1" stop-color="rgb(5.981445%, 10.30426%, 4.130554%)" offset="0.878906"/><stop stop-opacity="1" stop-color="rgb(5.789185%, 9.971619%, 3.997803%)" offset="0.882812"/><stop stop-opacity="1" stop-color="rgb(5.595398%, 9.638977%, 3.863525%)" offset="0.886719"/><stop stop-opacity="1" stop-color="rgb(5.403137%, 9.307861%, 3.730774%)" offset="0.890625"/><stop stop-opacity="1" stop-color="rgb(5.209351%, 8.97522%, 3.598022%)" offset="0.894531"/><stop stop-opacity="1" stop-color="rgb(5.01709%, 8.642578%, 3.465271%)" offset="0.898438"/><stop stop-opacity="1" stop-color="rgb(4.823303%, 8.309937%, 3.330994%)" offset="0.902344"/><stop stop-opacity="1" stop-color="rgb(4.631042%, 7.977295%, 3.198242%)" offset="0.90625"/><stop stop-opacity="1" stop-color="rgb(4.437256%, 7.644653%, 3.063965%)" offset="0.910156"/><stop stop-opacity="1" stop-color="rgb(4.244995%, 7.312012%, 2.931213%)" offset="0.914062"/><stop stop-opacity="1" stop-color="rgb(4.051208%, 6.97937%, 2.796936%)" offset="0.917969"/><stop stop-opacity="1" stop-color="rgb(3.858948%, 6.648254%, 2.664185%)" offset="0.921875"/><stop stop-opacity="1" stop-color="rgb(3.665161%, 6.315613%, 2.531433%)" offset="0.925781"/><stop stop-opacity="1" stop-color="rgb(3.4729%, 5.982971%, 2.398682%)" offset="0.929688"/><stop stop-opacity="1" stop-color="rgb(3.279114%, 5.65033%, 2.264404%)" offset="0.933594"/><stop stop-opacity="1" stop-color="rgb(3.086853%, 5.317688%, 2.131653%)" offset="0.9375"/><stop stop-opacity="1" stop-color="rgb(2.893066%, 4.985046%, 1.997375%)" offset="0.941406"/><stop stop-opacity="1" stop-color="rgb(2.700806%, 4.653931%, 1.864624%)" offset="0.945313"/><stop stop-opacity="1" stop-color="rgb(2.507019%, 4.321289%, 1.731873%)" offset="0.949219"/><stop stop-opacity="1" stop-color="rgb(2.314758%, 3.988647%, 1.599121%)" offset="0.953125"/><stop stop-opacity="1" stop-color="rgb(2.120972%, 3.656006%, 1.464844%)" offset="0.957031"/><stop stop-opacity="1" stop-color="rgb(1.928711%, 3.323364%, 1.332092%)" offset="0.960938"/><stop stop-opacity="1" stop-color="rgb(1.734924%, 2.990723%, 1.197815%)" offset="0.964844"/><stop stop-opacity="1" stop-color="rgb(1.542664%, 2.658081%, 1.065063%)" offset="0.96875"/><stop stop-opacity="1" stop-color="rgb(1.348877%, 2.325439%, 0.932312%)" offset="0.972656"/><stop stop-opacity="1" stop-color="rgb(1.156616%, 1.994324%, 0.799561%)" offset="0.976562"/><stop stop-opacity="1" stop-color="rgb(0.96283%, 1.661682%, 0.665283%)" offset="0.980469"/><stop stop-opacity="1" stop-color="rgb(0.770569%, 1.329041%, 0.532532%)" offset="0.984375"/><stop stop-opacity="1" stop-color="rgb(0.576782%, 0.996399%, 0.398254%)" offset="0.988281"/><stop stop-opacity="1" stop-color="rgb(0.384521%, 0.663757%, 0.265503%)" offset="0.992188"/><stop stop-opacity="1" stop-color="rgb(0.192261%, 0.331116%, 0.132751%)" offset="0.996094"/><stop stop-opacity="1" stop-color="rgb(0%, 0%, 0%)" offset="1"/></linearGradient></defs><g clip-path="url(#be9e8b4357)"><g clip-path="url(#2f6c9e0b64)"><path fill="url(#70bdb33bd8)" d="M 63.355469 61.140625 L 63.355469 1438.414062 L 1436.640625 1438.414062 L 1436.640625 61.140625 Z M 63.355469 61.140625 " fill-rule="nonzero"/></g></g></svg>