<svg xmlns="http://www.w3.org/2000/svg" xmlns:xlink="http://www.w3.org/1999/xlink" width="40" zoomAndPan="magnify" viewBox="0 0 30 30.000001" height="40" preserveAspectRatio="xMidYMid meet" version="1.0"><defs><clipPath id="92978a05fc"><path d="M 0.484375 0 L 29.515625 0 L 29.515625 29.03125 L 0.484375 29.03125 Z M 0.484375 0 " clip-rule="nonzero"/></clipPath><clipPath id="a8fc2f859e"><path d="M 20.28125 3.714844 C 17.613281 3.492188 15 2.679688 12.667969 1.363281 L 12.667969 6.617188 L 11.734375 6.617188 L 11.734375 1.363281 C 9.398438 2.679688 6.785156 3.492188 4.117188 3.714844 L 3.265625 3.785156 L 1.625 13.617188 C 1.519531 14.261719 1.464844 14.925781 1.464844 15.582031 C 1.464844 19.957031 3.851562 23.980469 7.695312 26.074219 L 10.667969 27.699219 C 11 27.878906 11.363281 27.992188 11.734375 28.046875 L 11.734375 24.355469 L 12.667969 24.355469 L 12.667969 28.046875 C 13.035156 27.992188 13.398438 27.878906 13.730469 27.699219 L 16.703125 26.074219 C 18.078125 25.328125 19.273438 24.332031 20.257812 23.121094 L 20.980469 23.710938 C 19.917969 25.015625 18.632812 26.089844 17.152344 26.894531 L 14.175781 28.519531 C 13.570312 28.847656 12.886719 29.023438 12.199219 29.023438 C 11.511719 29.023438 10.828125 28.847656 10.222656 28.519531 L 7.246094 26.894531 C 3.105469 24.636719 0.53125 20.300781 0.53125 15.582031 C 0.53125 14.875 0.589844 14.160156 0.707031 13.460938 L 2.464844 2.914062 L 4.039062 2.785156 C 6.835938 2.550781 9.570312 1.640625 11.953125 0.15625 L 12.199219 0 L 12.445312 0.15625 C 14.828125 1.640625 17.5625 2.550781 20.359375 2.785156 L 21.933594 2.914062 L 22.230469 4.675781 L 21.308594 4.828125 L 21.132812 3.785156 Z M 28.535156 9.886719 L 29.46875 9.886719 L 29.46875 11.285156 C 29.46875 12.058594 28.839844 12.6875 28.070312 12.6875 L 27.089844 12.6875 C 27.121094 12.835938 27.136719 12.992188 27.136719 13.152344 C 27.136719 13.3125 27.121094 13.46875 27.089844 13.621094 L 29.46875 13.621094 L 29.46875 14.554688 L 26.65625 14.554688 C 26.484375 14.78125 26.277344 14.972656 26.035156 15.125 L 26.371094 15.464844 C 26.378906 15.46875 26.386719 15.480469 26.394531 15.488281 L 28.070312 15.488281 C 28.839844 15.488281 29.46875 16.113281 29.46875 16.886719 L 29.46875 18.285156 L 28.535156 18.285156 L 28.535156 16.886719 C 28.535156 16.628906 28.328125 16.421875 28.070312 16.421875 L 27.089844 16.421875 C 27.421875 17.03125 27.601562 17.71875 27.601562 18.433594 L 27.601562 18.753906 C 27.601562 21.070312 25.71875 22.957031 23.402344 22.957031 C 21.085938 22.957031 19.199219 21.070312 19.199219 18.753906 L 19.199219 18.433594 C 19.199219 17.71875 19.378906 17.03125 19.714844 16.421875 L 18.734375 16.421875 C 18.476562 16.421875 18.265625 16.628906 18.265625 16.886719 L 18.265625 18.289062 L 17.332031 18.289062 L 17.332031 16.886719 C 17.332031 16.117188 17.960938 15.488281 18.734375 15.488281 L 20.410156 15.488281 C 20.417969 15.480469 20.421875 15.472656 20.429688 15.464844 L 20.769531 15.125 C 20.527344 14.972656 20.316406 14.78125 20.144531 14.554688 L 17.332031 14.554688 L 17.332031 13.621094 L 19.714844 13.621094 C 19.683594 13.46875 19.667969 13.3125 19.667969 13.152344 C 19.667969 12.992188 19.683594 12.835938 19.714844 12.6875 L 18.734375 12.6875 C 17.960938 12.6875 17.332031 12.058594 17.332031 11.285156 L 17.332031 9.886719 L 18.265625 9.886719 L 18.265625 11.285156 C 18.265625 11.542969 18.476562 11.753906 18.734375 11.753906 L 20.144531 11.753906 C 20.386719 11.4375 20.699219 11.179688 21.066406 11.015625 L 21.066406 10.351562 C 21.066406 10.199219 21.085938 10.054688 21.113281 9.910156 C 20.519531 9.597656 20.132812 8.988281 20.132812 8.289062 C 20.132812 7.671875 20.441406 7.097656 20.957031 6.753906 L 22.46875 5.746094 L 22.46875 6.617188 C 22.46875 7.136719 22.621094 7.636719 22.90625 8.070312 L 22.910156 8.070312 C 23.066406 8.039062 23.234375 8.015625 23.402344 8.015625 C 23.570312 8.015625 23.734375 8.039062 23.894531 8.070312 C 24.183594 7.636719 24.335938 7.136719 24.335938 6.617188 L 24.335938 5.746094 L 25.847656 6.753906 C 26.363281 7.097656 26.667969 7.671875 26.667969 8.289062 C 26.667969 8.988281 26.28125 9.597656 25.691406 9.910156 C 25.71875 10.054688 25.734375 10.199219 25.734375 10.351562 L 25.734375 11.015625 C 26.105469 11.179688 26.417969 11.433594 26.65625 11.753906 L 28.070312 11.753906 C 28.328125 11.753906 28.535156 11.542969 28.535156 11.285156 Z M 24.75 8.457031 C 24.976562 8.617188 25.175781 8.8125 25.332031 9.042969 C 25.578125 8.878906 25.734375 8.601562 25.734375 8.289062 C 25.734375 7.984375 25.582031 7.699219 25.328125 7.53125 L 25.175781 7.429688 C 25.089844 7.789062 24.945312 8.136719 24.75 8.457031 Z M 21.472656 9.042969 C 21.628906 8.8125 21.824219 8.617188 22.050781 8.457031 C 21.855469 8.136719 21.710938 7.789062 21.628906 7.429688 L 21.472656 7.53125 C 21.21875 7.699219 21.066406 7.984375 21.066406 8.289062 C 21.066406 8.601562 21.226562 8.878906 21.472656 9.042969 Z M 22 10.820312 L 24.800781 10.820312 L 24.800781 10.351562 C 24.800781 9.582031 24.171875 8.953125 23.402344 8.953125 C 22.628906 8.953125 22 9.582031 22 10.351562 Z M 26.347656 20.152344 C 26.488281 19.863281 26.582031 19.550781 26.632812 19.21875 L 20.171875 19.21875 C 20.21875 19.550781 20.316406 19.863281 20.453125 20.152344 Z M 26.484375 17.355469 L 20.320312 17.355469 C 20.214844 17.652344 20.15625 17.964844 20.140625 18.285156 L 26.660156 18.285156 C 26.648438 17.964844 26.585938 17.652344 26.484375 17.355469 Z M 23.402344 22.019531 C 24.289062 22.019531 25.09375 21.664062 25.683594 21.085938 L 21.121094 21.085938 C 21.707031 21.664062 22.515625 22.019531 23.402344 22.019531 Z M 25.050781 15.460938 C 24.96875 15.46875 24.886719 15.488281 24.800781 15.488281 L 22 15.488281 C 21.917969 15.488281 21.835938 15.46875 21.753906 15.460938 L 21.089844 16.125 C 20.996094 16.21875 20.910156 16.316406 20.832031 16.421875 L 25.972656 16.421875 C 25.890625 16.316406 25.804688 16.21875 25.710938 16.125 Z M 26.203125 13.152344 C 26.203125 12.378906 25.574219 11.753906 24.800781 11.753906 L 22 11.753906 C 21.230469 11.753906 20.601562 12.378906 20.601562 13.152344 C 20.601562 13.925781 21.230469 14.554688 22 14.554688 L 24.800781 14.554688 C 25.574219 14.554688 26.203125 13.925781 26.203125 13.152344 Z M 15.464844 22.953125 C 15.464844 22.183594 16.09375 21.554688 16.867188 21.554688 C 17.640625 21.554688 18.265625 22.183594 18.265625 22.953125 C 18.265625 23.726562 17.640625 24.355469 16.867188 24.355469 C 16.09375 24.355469 15.464844 23.726562 15.464844 22.953125 Z M 16.398438 22.953125 C 16.398438 23.210938 16.609375 23.421875 16.867188 23.421875 C 17.125 23.421875 17.332031 23.210938 17.332031 22.953125 C 17.332031 22.699219 17.125 22.488281 16.867188 22.488281 C 16.609375 22.488281 16.398438 22.699219 16.398438 22.953125 Z M 5.199219 17.820312 L 15 17.820312 C 15.773438 17.820312 16.398438 17.191406 16.398438 16.421875 C 16.398438 15.648438 15.773438 15.019531 15 15.019531 L 8.464844 15.019531 C 8.207031 15.019531 8 14.808594 8 14.554688 C 8 14.296875 8.207031 14.085938 8.464844 14.085938 L 12.667969 14.085938 C 13.4375 14.085938 14.066406 13.457031 14.066406 12.6875 C 14.066406 11.914062 13.4375 11.285156 12.667969 11.285156 L 5.664062 11.285156 C 5.40625 11.285156 5.199219 11.074219 5.199219 10.820312 C 5.199219 10.5625 5.40625 10.351562 5.664062 10.351562 L 14.066406 10.351562 C 14.839844 10.351562 15.464844 9.722656 15.464844 8.953125 C 15.464844 8.179688 14.839844 7.550781 14.066406 7.550781 L 9.398438 7.550781 L 9.398438 8.484375 L 14.066406 8.484375 C 14.324219 8.484375 14.535156 8.695312 14.535156 8.953125 C 14.535156 9.210938 14.324219 9.417969 14.066406 9.417969 L 5.664062 9.417969 C 4.894531 9.417969 4.265625 10.046875 4.265625 10.820312 C 4.265625 11.589844 4.894531 12.21875 5.664062 12.21875 L 12.667969 12.21875 C 12.921875 12.21875 13.132812 12.429688 13.132812 12.6875 C 13.132812 12.941406 12.921875 13.152344 12.667969 13.152344 L 8.464844 13.152344 C 7.695312 13.152344 7.066406 13.78125 7.066406 14.554688 C 7.066406 15.324219 7.695312 15.953125 8.464844 15.953125 L 15 15.953125 C 15.257812 15.953125 15.464844 16.164062 15.464844 16.421875 C 15.464844 16.675781 15.257812 16.886719 15 16.886719 L 5.199219 16.886719 C 4.425781 16.886719 3.796875 17.515625 3.796875 18.285156 C 3.796875 19.058594 4.425781 19.6875 5.199219 19.6875 L 11.734375 19.6875 C 11.988281 19.6875 12.199219 19.898438 12.199219 20.152344 C 12.199219 20.410156 11.988281 20.621094 11.734375 20.621094 L 7.53125 20.621094 C 6.761719 20.621094 6.132812 21.25 6.132812 22.019531 C 6.132812 22.792969 6.761719 23.421875 7.53125 23.421875 L 14.535156 23.421875 L 14.535156 22.488281 L 7.53125 22.488281 C 7.273438 22.488281 7.066406 22.277344 7.066406 22.019531 C 7.066406 21.765625 7.273438 21.554688 7.53125 21.554688 L 11.734375 21.554688 C 12.503906 21.554688 13.132812 20.925781 13.132812 20.152344 C 13.132812 19.382812 12.503906 18.753906 11.734375 18.753906 L 5.199219 18.753906 C 4.941406 18.753906 4.730469 18.542969 4.730469 18.285156 C 4.730469 18.03125 4.941406 17.820312 5.199219 17.820312 Z M 5.199219 17.820312 " clip-rule="nonzero"/></clipPath><linearGradient x1="31" gradientTransform="matrix(0.466757, 0, 0, 0.466757, 0.530546, 0.00000193548)" y1="62.180001" x2="31" gradientUnits="userSpaceOnUse" y2="0" id="cce95990e4"><stop stop-opacity="1" stop-color="rgb(49.409485%, 85.099792%, 34.118652%)" offset="0"/><stop stop-opacity="1" stop-color="rgb(49.215698%, 84.767151%, 33.985901%)" offset="0.00390625"/><stop stop-opacity="1" stop-color="rgb(49.023438%, 84.436035%, 33.853149%)" offset="0.0078125"/><stop stop-opacity="1" stop-color="rgb(48.829651%, 84.103394%, 33.718872%)" offset="0.0117188"/><stop stop-opacity="1" stop-color="rgb(48.63739%, 83.770752%, 33.586121%)" offset="0.015625"/><stop stop-opacity="1" stop-color="rgb(48.443604%, 83.43811%, 33.453369%)" offset="0.0195312"/><stop stop-opacity="1" stop-color="rgb(48.251343%, 83.105469%, 33.320618%)" offset="0.0234375"/><stop stop-opacity="1" stop-color="rgb(48.057556%, 82.772827%, 33.18634%)" offset="0.0273437"/><stop stop-opacity="1" stop-color="rgb(47.865295%, 82.441711%, 33.053589%)" offset="0.03125"/><stop stop-opacity="1" stop-color="rgb(47.671509%, 82.10907%, 32.919312%)" offset="0.0351563"/><stop stop-opacity="1" stop-color="rgb(47.479248%, 81.776428%, 32.78656%)" offset="0.0390625"/><stop stop-opacity="1" stop-color="rgb(47.285461%, 81.443787%, 32.653809%)" offset="0.0429688"/><stop stop-opacity="1" stop-color="rgb(47.093201%, 81.111145%, 32.521057%)" offset="0.046875"/><stop stop-opacity="1" stop-color="rgb(46.899414%, 80.778503%, 32.38678%)" offset="0.0507812"/><stop stop-opacity="1" stop-color="rgb(46.707153%, 80.445862%, 32.254028%)" offset="0.0546875"/><stop stop-opacity="1" stop-color="rgb(46.513367%, 80.11322%, 32.119751%)" offset="0.0585938"/><stop stop-opacity="1" stop-color="rgb(46.321106%, 79.782104%, 31.987%)" offset="0.0625"/><stop stop-opacity="1" stop-color="rgb(46.128845%, 79.449463%, 31.852722%)" offset="0.0664063"/><stop stop-opacity="1" stop-color="rgb(45.936584%, 79.116821%, 31.719971%)" offset="0.0703125"/><stop stop-opacity="1" stop-color="rgb(45.742798%, 78.78418%, 31.587219%)" offset="0.0742188"/><stop stop-opacity="1" stop-color="rgb(45.550537%, 78.451538%, 31.454468%)" offset="0.078125"/><stop stop-opacity="1" stop-color="rgb(45.35675%, 78.118896%, 31.32019%)" offset="0.0820313"/><stop stop-opacity="1" stop-color="rgb(45.16449%, 77.787781%, 31.187439%)" offset="0.0859375"/><stop stop-opacity="1" stop-color="rgb(44.970703%, 77.455139%, 31.053162%)" offset="0.0898438"/><stop stop-opacity="1" stop-color="rgb(44.778442%, 77.122498%, 30.92041%)" offset="0.09375"/><stop stop-opacity="1" stop-color="rgb(44.584656%, 76.789856%, 30.787659%)" offset="0.0976562"/><stop stop-opacity="1" stop-color="rgb(44.392395%, 76.457214%, 30.654907%)" offset="0.101562"/><stop stop-opacity="1" stop-color="rgb(44.198608%, 76.124573%, 30.52063%)" offset="0.105469"/><stop stop-opacity="1" stop-color="rgb(44.006348%, 75.791931%, 30.387878%)" offset="0.109375"/><stop stop-opacity="1" stop-color="rgb(43.812561%, 75.45929%, 30.253601%)" offset="0.113281"/><stop stop-opacity="1" stop-color="rgb(43.6203%, 75.128174%, 30.12085%)" offset="0.117188"/><stop stop-opacity="1" stop-color="rgb(43.426514%, 74.795532%, 29.988098%)" offset="0.121094"/><stop stop-opacity="1" stop-color="rgb(43.234253%, 74.462891%, 29.855347%)" offset="0.125"/><stop stop-opacity="1" stop-color="rgb(43.040466%, 74.130249%, 29.721069%)" offset="0.128906"/><stop stop-opacity="1" stop-color="rgb(42.848206%, 73.797607%, 29.588318%)" offset="0.132813"/><stop stop-opacity="1" stop-color="rgb(42.654419%, 73.464966%, 29.454041%)" offset="0.136719"/><stop stop-opacity="1" stop-color="rgb(42.462158%, 73.13385%, 29.321289%)" offset="0.140625"/><stop stop-opacity="1" stop-color="rgb(42.268372%, 72.801208%, 29.187012%)" offset="0.144531"/><stop stop-opacity="1" stop-color="rgb(42.076111%, 72.468567%, 29.05426%)" offset="0.148438"/><stop stop-opacity="1" stop-color="rgb(41.882324%, 72.135925%, 28.921509%)" offset="0.152344"/><stop stop-opacity="1" stop-color="rgb(41.690063%, 71.803284%, 28.788757%)" offset="0.15625"/><stop stop-opacity="1" stop-color="rgb(41.496277%, 71.470642%, 28.65448%)" offset="0.160156"/><stop stop-opacity="1" stop-color="rgb(41.304016%, 71.138%, 28.521729%)" offset="0.164063"/><stop stop-opacity="1" stop-color="rgb(41.110229%, 70.805359%, 28.387451%)" offset="0.167969"/><stop stop-opacity="1" stop-color="rgb(40.917969%, 70.474243%, 28.2547%)" offset="0.171875"/><stop stop-opacity="1" stop-color="rgb(40.724182%, 70.141602%, 28.121948%)" offset="0.175781"/><stop stop-opacity="1" stop-color="rgb(40.531921%, 69.80896%, 27.989197%)" offset="0.179688"/><stop stop-opacity="1" stop-color="rgb(40.338135%, 69.476318%, 27.854919%)" offset="0.183594"/><stop stop-opacity="1" stop-color="rgb(40.145874%, 69.143677%, 27.722168%)" offset="0.1875"/><stop stop-opacity="1" stop-color="rgb(39.952087%, 68.811035%, 27.587891%)" offset="0.191406"/><stop stop-opacity="1" stop-color="rgb(39.759827%, 68.479919%, 27.455139%)" offset="0.195313"/><stop stop-opacity="1" stop-color="rgb(39.56604%, 68.147278%, 27.322388%)" offset="0.199219"/><stop stop-opacity="1" stop-color="rgb(39.373779%, 67.814636%, 27.189636%)" offset="0.203125"/><stop stop-opacity="1" stop-color="rgb(39.179993%, 67.481995%, 27.055359%)" offset="0.207031"/><stop stop-opacity="1" stop-color="rgb(38.987732%, 67.149353%, 26.922607%)" offset="0.210938"/><stop stop-opacity="1" stop-color="rgb(38.793945%, 66.816711%, 26.78833%)" offset="0.214844"/><stop stop-opacity="1" stop-color="rgb(38.601685%, 66.48407%, 26.655579%)" offset="0.21875"/><stop stop-opacity="1" stop-color="rgb(38.407898%, 66.151428%, 26.522827%)" offset="0.222656"/><stop stop-opacity="1" stop-color="rgb(38.215637%, 65.820312%, 26.390076%)" offset="0.226563"/><stop stop-opacity="1" stop-color="rgb(38.021851%, 65.487671%, 26.255798%)" offset="0.230469"/><stop stop-opacity="1" stop-color="rgb(37.82959%, 65.155029%, 26.123047%)" offset="0.234375"/><stop stop-opacity="1" stop-color="rgb(37.635803%, 64.822388%, 25.98877%)" offset="0.238281"/><stop stop-opacity="1" stop-color="rgb(37.443542%, 64.489746%, 25.856018%)" offset="0.242188"/><stop stop-opacity="1" stop-color="rgb(37.249756%, 64.157104%, 25.721741%)" offset="0.246094"/><stop stop-opacity="1" stop-color="rgb(37.057495%, 63.825989%, 25.588989%)" offset="0.25"/><stop stop-opacity="1" stop-color="rgb(36.863708%, 63.493347%, 25.456238%)" offset="0.253906"/><stop stop-opacity="1" stop-color="rgb(36.671448%, 63.160706%, 25.323486%)" offset="0.257812"/><stop stop-opacity="1" stop-color="rgb(36.477661%, 62.828064%, 25.189209%)" offset="0.261719"/><stop stop-opacity="1" stop-color="rgb(36.2854%, 62.495422%, 25.056458%)" offset="0.265625"/><stop stop-opacity="1" stop-color="rgb(36.091614%, 62.162781%, 24.92218%)" offset="0.269531"/><stop stop-opacity="1" stop-color="rgb(35.899353%, 61.830139%, 24.789429%)" offset="0.273438"/><stop stop-opacity="1" stop-color="rgb(35.705566%, 61.497498%, 24.656677%)" offset="0.277344"/><stop stop-opacity="1" stop-color="rgb(35.513306%, 61.166382%, 24.523926%)" offset="0.28125"/><stop stop-opacity="1" stop-color="rgb(35.319519%, 60.83374%, 24.389648%)" offset="0.285156"/><stop stop-opacity="1" stop-color="rgb(35.127258%, 60.501099%, 24.256897%)" offset="0.289062"/><stop stop-opacity="1" stop-color="rgb(34.933472%, 60.168457%, 24.12262%)" offset="0.292969"/><stop stop-opacity="1" stop-color="rgb(34.741211%, 59.835815%, 23.989868%)" offset="0.296875"/><stop stop-opacity="1" stop-color="rgb(34.547424%, 59.503174%, 23.857117%)" offset="0.300781"/><stop stop-opacity="1" stop-color="rgb(34.355164%, 59.170532%, 23.724365%)" offset="0.304688"/><stop stop-opacity="1" stop-color="rgb(34.161377%, 58.837891%, 23.590088%)" offset="0.308594"/><stop stop-opacity="1" stop-color="rgb(33.969116%, 58.506775%, 23.457336%)" offset="0.3125"/><stop stop-opacity="1" stop-color="rgb(33.77533%, 58.174133%, 23.323059%)" offset="0.316406"/><stop stop-opacity="1" stop-color="rgb(33.583069%, 57.841492%, 23.190308%)" offset="0.320312"/><stop stop-opacity="1" stop-color="rgb(33.389282%, 57.50885%, 23.05603%)" offset="0.324219"/><stop stop-opacity="1" stop-color="rgb(33.197021%, 57.176208%, 22.923279%)" offset="0.328125"/><stop stop-opacity="1" stop-color="rgb(33.003235%, 56.843567%, 22.790527%)" offset="0.332031"/><stop stop-opacity="1" stop-color="rgb(32.810974%, 56.512451%, 22.657776%)" offset="0.335938"/><stop stop-opacity="1" stop-color="rgb(32.617188%, 56.17981%, 22.523499%)" offset="0.339844"/><stop stop-opacity="1" stop-color="rgb(32.424927%, 55.847168%, 22.390747%)" offset="0.34375"/><stop stop-opacity="1" stop-color="rgb(32.23114%, 55.514526%, 22.25647%)" offset="0.347656"/><stop stop-opacity="1" stop-color="rgb(32.038879%, 55.181885%, 22.123718%)" offset="0.351562"/><stop stop-opacity="1" stop-color="rgb(31.845093%, 54.849243%, 21.990967%)" offset="0.355469"/><stop stop-opacity="1" stop-color="rgb(31.652832%, 54.516602%, 21.858215%)" offset="0.359375"/><stop stop-opacity="1" stop-color="rgb(31.459045%, 54.18396%, 21.723938%)" offset="0.363281"/><stop stop-opacity="1" stop-color="rgb(31.266785%, 53.852844%, 21.591187%)" offset="0.367188"/><stop stop-opacity="1" stop-color="rgb(31.072998%, 53.520203%, 21.456909%)" offset="0.371094"/><stop stop-opacity="1" stop-color="rgb(30.880737%, 53.187561%, 21.324158%)" offset="0.375"/><stop stop-opacity="1" stop-color="rgb(30.686951%, 52.854919%, 21.191406%)" offset="0.378906"/><stop stop-opacity="1" stop-color="rgb(30.49469%, 52.522278%, 21.058655%)" offset="0.382812"/><stop stop-opacity="1" stop-color="rgb(30.300903%, 52.189636%, 20.924377%)" offset="0.386719"/><stop stop-opacity="1" stop-color="rgb(30.108643%, 51.858521%, 20.791626%)" offset="0.390625"/><stop stop-opacity="1" stop-color="rgb(29.914856%, 51.525879%, 20.657349%)" offset="0.394531"/><stop stop-opacity="1" stop-color="rgb(29.722595%, 51.193237%, 20.524597%)" offset="0.398437"/><stop stop-opacity="1" stop-color="rgb(29.528809%, 50.860596%, 20.39032%)" offset="0.402344"/><stop stop-opacity="1" stop-color="rgb(29.336548%, 50.527954%, 20.257568%)" offset="0.40625"/><stop stop-opacity="1" stop-color="rgb(29.142761%, 50.195312%, 20.124817%)" offset="0.410156"/><stop stop-opacity="1" stop-color="rgb(28.9505%, 49.862671%, 19.992065%)" offset="0.414062"/><stop stop-opacity="1" stop-color="rgb(28.756714%, 49.530029%, 19.857788%)" offset="0.417969"/><stop stop-opacity="1" stop-color="rgb(28.564453%, 49.198914%, 19.725037%)" offset="0.421875"/><stop stop-opacity="1" stop-color="rgb(28.370667%, 48.866272%, 19.590759%)" offset="0.425781"/><stop stop-opacity="1" stop-color="rgb(28.178406%, 48.53363%, 19.458008%)" offset="0.429687"/><stop stop-opacity="1" stop-color="rgb(27.984619%, 48.200989%, 19.325256%)" offset="0.433594"/><stop stop-opacity="1" stop-color="rgb(27.792358%, 47.868347%, 19.192505%)" offset="0.4375"/><stop stop-opacity="1" stop-color="rgb(27.598572%, 47.535706%, 19.058228%)" offset="0.441406"/><stop stop-opacity="1" stop-color="rgb(27.406311%, 47.20459%, 18.925476%)" offset="0.445312"/><stop stop-opacity="1" stop-color="rgb(27.212524%, 46.871948%, 18.791199%)" offset="0.449219"/><stop stop-opacity="1" stop-color="rgb(27.020264%, 46.539307%, 18.658447%)" offset="0.453125"/><stop stop-opacity="1" stop-color="rgb(26.826477%, 46.206665%, 18.525696%)" offset="0.457031"/><stop stop-opacity="1" stop-color="rgb(26.634216%, 45.874023%, 18.392944%)" offset="0.460937"/><stop stop-opacity="1" stop-color="rgb(26.44043%, 45.541382%, 18.258667%)" offset="0.464844"/><stop stop-opacity="1" stop-color="rgb(26.248169%, 45.20874%, 18.125916%)" offset="0.46875"/><stop stop-opacity="1" stop-color="rgb(26.054382%, 44.876099%, 17.991638%)" offset="0.472656"/><stop stop-opacity="1" stop-color="rgb(25.862122%, 44.544983%, 17.858887%)" offset="0.476562"/><stop stop-opacity="1" stop-color="rgb(25.668335%, 44.212341%, 17.726135%)" offset="0.480469"/><stop stop-opacity="1" stop-color="rgb(25.476074%, 43.8797%, 17.593384%)" offset="0.484375"/><stop stop-opacity="1" stop-color="rgb(25.282288%, 43.547058%, 17.459106%)" offset="0.488281"/><stop stop-opacity="1" stop-color="rgb(25.090027%, 43.214417%, 17.326355%)" offset="0.492187"/><stop stop-opacity="1" stop-color="rgb(24.89624%, 42.881775%, 17.192078%)" offset="0.496094"/><stop stop-opacity="1" stop-color="rgb(24.703979%, 42.550659%, 17.059326%)" offset="0.5"/><stop stop-opacity="1" stop-color="rgb(24.510193%, 42.218018%, 16.925049%)" offset="0.503906"/><stop stop-opacity="1" stop-color="rgb(24.317932%, 41.885376%, 16.792297%)" offset="0.507813"/><stop stop-opacity="1" stop-color="rgb(24.124146%, 41.552734%, 16.659546%)" offset="0.511719"/><stop stop-opacity="1" stop-color="rgb(23.931885%, 41.220093%, 16.526794%)" offset="0.515625"/><stop stop-opacity="1" stop-color="rgb(23.738098%, 40.887451%, 16.392517%)" offset="0.519531"/><stop stop-opacity="1" stop-color="rgb(23.545837%, 40.55481%, 16.259766%)" offset="0.523438"/><stop stop-opacity="1" stop-color="rgb(23.352051%, 40.222168%, 16.125488%)" offset="0.527344"/><stop stop-opacity="1" stop-color="rgb(23.15979%, 39.891052%, 15.992737%)" offset="0.53125"/><stop stop-opacity="1" stop-color="rgb(22.967529%, 39.558411%, 15.859985%)" offset="0.535156"/><stop stop-opacity="1" stop-color="rgb(22.775269%, 39.225769%, 15.727234%)" offset="0.539063"/><stop stop-opacity="1" stop-color="rgb(22.581482%, 38.893127%, 15.592957%)" offset="0.542969"/><stop stop-opacity="1" stop-color="rgb(22.389221%, 38.560486%, 15.460205%)" offset="0.546875"/><stop stop-opacity="1" stop-color="rgb(22.195435%, 38.227844%, 15.325928%)" offset="0.550781"/><stop stop-opacity="1" stop-color="rgb(22.003174%, 37.895203%, 15.193176%)" offset="0.554688"/><stop stop-opacity="1" stop-color="rgb(21.809387%, 37.562561%, 15.060425%)" offset="0.558594"/><stop stop-opacity="1" stop-color="rgb(21.617126%, 37.231445%, 14.927673%)" offset="0.5625"/><stop stop-opacity="1" stop-color="rgb(21.42334%, 36.898804%, 14.793396%)" offset="0.566406"/><stop stop-opacity="1" stop-color="rgb(21.231079%, 36.566162%, 14.660645%)" offset="0.570313"/><stop stop-opacity="1" stop-color="rgb(21.037292%, 36.233521%, 14.526367%)" offset="0.574219"/><stop stop-opacity="1" stop-color="rgb(20.845032%, 35.900879%, 14.393616%)" offset="0.578125"/><stop stop-opacity="1" stop-color="rgb(20.651245%, 35.568237%, 14.259338%)" offset="0.582031"/><stop stop-opacity="1" stop-color="rgb(20.458984%, 35.237122%, 14.126587%)" offset="0.585938"/><stop stop-opacity="1" stop-color="rgb(20.265198%, 34.90448%, 13.993835%)" offset="0.589844"/><stop stop-opacity="1" stop-color="rgb(20.072937%, 34.571838%, 13.861084%)" offset="0.59375"/><stop stop-opacity="1" stop-color="rgb(19.87915%, 34.239197%, 13.726807%)" offset="0.597656"/><stop stop-opacity="1" stop-color="rgb(19.68689%, 33.906555%, 13.594055%)" offset="0.601563"/><stop stop-opacity="1" stop-color="rgb(19.493103%, 33.573914%, 13.459778%)" offset="0.605469"/><stop stop-opacity="1" stop-color="rgb(19.300842%, 33.241272%, 13.327026%)" offset="0.609375"/><stop stop-opacity="1" stop-color="rgb(19.107056%, 32.90863%, 13.194275%)" offset="0.613281"/><stop stop-opacity="1" stop-color="rgb(18.914795%, 32.577515%, 13.061523%)" offset="0.617188"/><stop stop-opacity="1" stop-color="rgb(18.721008%, 32.244873%, 12.927246%)" offset="0.621094"/><stop stop-opacity="1" stop-color="rgb(18.528748%, 31.912231%, 12.794495%)" offset="0.625"/><stop stop-opacity="1" stop-color="rgb(18.334961%, 31.57959%, 12.660217%)" offset="0.628906"/><stop stop-opacity="1" stop-color="rgb(18.1427%, 31.246948%, 12.527466%)" offset="0.632813"/><stop stop-opacity="1" stop-color="rgb(17.948914%, 30.914307%, 12.394714%)" offset="0.636719"/><stop stop-opacity="1" stop-color="rgb(17.756653%, 30.583191%, 12.261963%)" offset="0.640625"/><stop stop-opacity="1" stop-color="rgb(17.562866%, 30.250549%, 12.127686%)" offset="0.644531"/><stop stop-opacity="1" stop-color="rgb(17.370605%, 29.917908%, 11.994934%)" offset="0.648438"/><stop stop-opacity="1" stop-color="rgb(17.176819%, 29.585266%, 11.860657%)" offset="0.652344"/><stop stop-opacity="1" stop-color="rgb(16.984558%, 29.252625%, 11.727905%)" offset="0.65625"/><stop stop-opacity="1" stop-color="rgb(16.790771%, 28.919983%, 11.593628%)" offset="0.660156"/><stop stop-opacity="1" stop-color="rgb(16.598511%, 28.587341%, 11.460876%)" offset="0.664063"/><stop stop-opacity="1" stop-color="rgb(16.404724%, 28.2547%, 11.328125%)" offset="0.667969"/><stop stop-opacity="1" stop-color="rgb(16.212463%, 27.923584%, 11.195374%)" offset="0.671875"/><stop stop-opacity="1" stop-color="rgb(16.018677%, 27.590942%, 11.061096%)" offset="0.675781"/><stop stop-opacity="1" stop-color="rgb(15.826416%, 27.258301%, 10.928345%)" offset="0.679688"/><stop stop-opacity="1" stop-color="rgb(15.632629%, 26.925659%, 10.794067%)" offset="0.683594"/><stop stop-opacity="1" stop-color="rgb(15.440369%, 26.593018%, 10.661316%)" offset="0.6875"/><stop stop-opacity="1" stop-color="rgb(15.246582%, 26.260376%, 10.528564%)" offset="0.691406"/><stop stop-opacity="1" stop-color="rgb(15.054321%, 25.92926%, 10.395813%)" offset="0.695313"/><stop stop-opacity="1" stop-color="rgb(14.860535%, 25.596619%, 10.261536%)" offset="0.699219"/><stop stop-opacity="1" stop-color="rgb(14.668274%, 25.263977%, 10.128784%)" offset="0.703125"/><stop stop-opacity="1" stop-color="rgb(14.474487%, 24.931335%, 9.994507%)" offset="0.707031"/><stop stop-opacity="1" stop-color="rgb(14.282227%, 24.598694%, 9.861755%)" offset="0.710938"/><stop stop-opacity="1" stop-color="rgb(14.08844%, 24.266052%, 9.729004%)" offset="0.714844"/><stop stop-opacity="1" stop-color="rgb(13.896179%, 23.933411%, 9.596252%)" offset="0.71875"/><stop stop-opacity="1" stop-color="rgb(13.702393%, 23.600769%, 9.461975%)" offset="0.722656"/><stop stop-opacity="1" stop-color="rgb(13.510132%, 23.269653%, 9.329224%)" offset="0.726563"/><stop stop-opacity="1" stop-color="rgb(13.316345%, 22.937012%, 9.194946%)" offset="0.730469"/><stop stop-opacity="1" stop-color="rgb(13.124084%, 22.60437%, 9.062195%)" offset="0.734375"/><stop stop-opacity="1" stop-color="rgb(12.930298%, 22.271729%, 8.929443%)" offset="0.738281"/><stop stop-opacity="1" stop-color="rgb(12.738037%, 21.939087%, 8.796692%)" offset="0.742188"/><stop stop-opacity="1" stop-color="rgb(12.54425%, 21.606445%, 8.662415%)" offset="0.746094"/><stop stop-opacity="1" stop-color="rgb(12.35199%, 21.27533%, 8.529663%)" offset="0.75"/><stop stop-opacity="1" stop-color="rgb(12.158203%, 20.942688%, 8.395386%)" offset="0.753906"/><stop stop-opacity="1" stop-color="rgb(11.965942%, 20.610046%, 8.262634%)" offset="0.757812"/><stop stop-opacity="1" stop-color="rgb(11.772156%, 20.277405%, 8.128357%)" offset="0.761719"/><stop stop-opacity="1" stop-color="rgb(11.579895%, 19.944763%, 7.995605%)" offset="0.765625"/><stop stop-opacity="1" stop-color="rgb(11.386108%, 19.612122%, 7.862854%)" offset="0.769531"/><stop stop-opacity="1" stop-color="rgb(11.193848%, 19.27948%, 7.730103%)" offset="0.773438"/><stop stop-opacity="1" stop-color="rgb(11.000061%, 18.946838%, 7.595825%)" offset="0.777344"/><stop stop-opacity="1" stop-color="rgb(10.8078%, 18.615723%, 7.463074%)" offset="0.78125"/><stop stop-opacity="1" stop-color="rgb(10.614014%, 18.283081%, 7.328796%)" offset="0.785156"/><stop stop-opacity="1" stop-color="rgb(10.421753%, 17.950439%, 7.196045%)" offset="0.789063"/><stop stop-opacity="1" stop-color="rgb(10.227966%, 17.617798%, 7.063293%)" offset="0.792969"/><stop stop-opacity="1" stop-color="rgb(10.035706%, 17.285156%, 6.930542%)" offset="0.796875"/><stop stop-opacity="1" stop-color="rgb(9.841919%, 16.952515%, 6.796265%)" offset="0.800781"/><stop stop-opacity="1" stop-color="rgb(9.649658%, 16.619873%, 6.663513%)" offset="0.804688"/><stop stop-opacity="1" stop-color="rgb(9.455872%, 16.287231%, 6.529236%)" offset="0.808594"/><stop stop-opacity="1" stop-color="rgb(9.263611%, 15.956116%, 6.396484%)" offset="0.8125"/><stop stop-opacity="1" stop-color="rgb(9.069824%, 15.623474%, 6.263733%)" offset="0.816406"/><stop stop-opacity="1" stop-color="rgb(8.877563%, 15.290833%, 6.130981%)" offset="0.820313"/><stop stop-opacity="1" stop-color="rgb(8.683777%, 14.958191%, 5.996704%)" offset="0.824219"/><stop stop-opacity="1" stop-color="rgb(8.491516%, 14.625549%, 5.863953%)" offset="0.828125"/><stop stop-opacity="1" stop-color="rgb(8.297729%, 14.292908%, 5.729675%)" offset="0.832031"/><stop stop-opacity="1" stop-color="rgb(8.105469%, 13.961792%, 5.596924%)" offset="0.835938"/><stop stop-opacity="1" stop-color="rgb(7.911682%, 13.62915%, 5.462646%)" offset="0.839844"/><stop stop-opacity="1" stop-color="rgb(7.719421%, 13.296509%, 5.329895%)" offset="0.84375"/><stop stop-opacity="1" stop-color="rgb(7.525635%, 12.963867%, 5.197144%)" offset="0.847656"/><stop stop-opacity="1" stop-color="rgb(7.333374%, 12.631226%, 5.064392%)" offset="0.851563"/><stop stop-opacity="1" stop-color="rgb(7.139587%, 12.298584%, 4.930115%)" offset="0.855469"/><stop stop-opacity="1" stop-color="rgb(6.947327%, 11.965942%, 4.797363%)" offset="0.859375"/><stop stop-opacity="1" stop-color="rgb(6.75354%, 11.633301%, 4.663086%)" offset="0.863281"/><stop stop-opacity="1" stop-color="rgb(6.561279%, 11.302185%, 4.530334%)" offset="0.867188"/><stop stop-opacity="1" stop-color="rgb(6.367493%, 10.969543%, 4.397583%)" offset="0.871094"/><stop stop-opacity="1" stop-color="rgb(6.175232%, 10.636902%, 4.264832%)" offset="0.875"/><stop stop-opacity="1" stop-color="rgb(5.981445%, 10.30426%, 4.130554%)" offset="0.878906"/><stop stop-opacity="1" stop-color="rgb(5.789185%, 9.971619%, 3.997803%)" offset="0.882813"/><stop stop-opacity="1" stop-color="rgb(5.595398%, 9.638977%, 3.863525%)" offset="0.886719"/><stop stop-opacity="1" stop-color="rgb(5.403137%, 9.307861%, 3.730774%)" offset="0.890625"/><stop stop-opacity="1" stop-color="rgb(5.209351%, 8.97522%, 3.598022%)" offset="0.894531"/><stop stop-opacity="1" stop-color="rgb(5.01709%, 8.642578%, 3.465271%)" offset="0.898438"/><stop stop-opacity="1" stop-color="rgb(4.823303%, 8.309937%, 3.330994%)" offset="0.902344"/><stop stop-opacity="1" stop-color="rgb(4.631042%, 7.977295%, 3.198242%)" offset="0.90625"/><stop stop-opacity="1" stop-color="rgb(4.437256%, 7.644653%, 3.063965%)" offset="0.910156"/><stop stop-opacity="1" stop-color="rgb(4.244995%, 7.312012%, 2.931213%)" offset="0.914063"/><stop stop-opacity="1" stop-color="rgb(4.051208%, 6.97937%, 2.796936%)" offset="0.917969"/><stop stop-opacity="1" stop-color="rgb(3.858948%, 6.648254%, 2.664185%)" offset="0.921875"/><stop stop-opacity="1" stop-color="rgb(3.665161%, 6.315613%, 2.531433%)" offset="0.925781"/><stop stop-opacity="1" stop-color="rgb(3.4729%, 5.982971%, 2.398682%)" offset="0.929688"/><stop stop-opacity="1" stop-color="rgb(3.279114%, 5.65033%, 2.264404%)" offset="0.933594"/><stop stop-opacity="1" stop-color="rgb(3.086853%, 5.317688%, 2.131653%)" offset="0.9375"/><stop stop-opacity="1" stop-color="rgb(2.893066%, 4.985046%, 1.997375%)" offset="0.941406"/><stop stop-opacity="1" stop-color="rgb(2.700806%, 4.653931%, 1.864624%)" offset="0.945313"/><stop stop-opacity="1" stop-color="rgb(2.507019%, 4.321289%, 1.731873%)" offset="0.949219"/><stop stop-opacity="1" stop-color="rgb(2.314758%, 3.988647%, 1.599121%)" offset="0.953125"/><stop stop-opacity="1" stop-color="rgb(2.120972%, 3.656006%, 1.464844%)" offset="0.957031"/><stop stop-opacity="1" stop-color="rgb(1.928711%, 3.323364%, 1.332092%)" offset="0.960938"/><stop stop-opacity="1" stop-color="rgb(1.734924%, 2.990723%, 1.197815%)" offset="0.964844"/><stop stop-opacity="1" stop-color="rgb(1.542664%, 2.658081%, 1.065063%)" offset="0.96875"/><stop stop-opacity="1" stop-color="rgb(1.348877%, 2.325439%, 0.932312%)" offset="0.972656"/><stop stop-opacity="1" stop-color="rgb(1.156616%, 1.994324%, 0.799561%)" offset="0.976563"/><stop stop-opacity="1" stop-color="rgb(0.96283%, 1.661682%, 0.665283%)" offset="0.980469"/><stop stop-opacity="1" stop-color="rgb(0.770569%, 1.329041%, 0.532532%)" offset="0.984375"/><stop stop-opacity="1" stop-color="rgb(0.576782%, 0.996399%, 0.398254%)" offset="0.988281"/><stop stop-opacity="1" stop-color="rgb(0.384521%, 0.663757%, 0.265503%)" offset="0.992188"/><stop stop-opacity="1" stop-color="rgb(0.192261%, 0.331116%, 0.132751%)" offset="0.996094"/><stop stop-opacity="1" stop-color="rgb(0%, 0%, 0%)" offset="1"/></linearGradient></defs><g clip-path="url(#92978a05fc)"><g clip-path="url(#a8fc2f859e)"><path fill="url(#cce95990e4)" d="M 0.53125 0 L 0.53125 29.023438 L 29.46875 29.023438 L 29.46875 0 Z M 0.53125 0 " fill-rule="nonzero"/></g></g></svg>